<svg width="25" height="25" viewBox="0 0 25 25" fill="none" xmlns="http://www.w3.org/2000/svg">
<path d="M10.6385 21.8662C10.558 21.8662 10.4789 21.8451 10.4091 21.8052C10.3393 21.7652 10.2812 21.7077 10.2404 21.6383C8.73096 19.0667 4.70658 13.5906 4.66596 13.5356C4.60027 13.4463 4.5689 13.3364 4.57759 13.2259C4.58629 13.1153 4.63447 13.0117 4.71332 12.9337L5.95103 11.7107C6.0278 11.6348 6.12872 11.5883 6.23626 11.5791C6.34379 11.5699 6.45114 11.5988 6.53963 11.6605L10.5424 14.4555C13.2234 11.0184 15.7133 8.64375 17.3518 7.24219C19.1976 5.66336 20.3729 4.95268 20.4221 4.92319C20.4938 4.88015 20.5759 4.85742 20.6595 4.85742H22.6618C22.7553 4.85742 22.8467 4.88585 22.9237 4.93894C23.0007 4.99204 23.0598 5.06729 23.0931 5.15473C23.1264 5.24217 23.1323 5.33766 23.1101 5.42854C23.0879 5.51943 23.0386 5.60141 22.9687 5.66364C17.2837 10.7272 11.1011 21.5245 11.0393 21.6329C10.9993 21.7032 10.9414 21.7618 10.8715 21.8027C10.8017 21.8436 10.7223 21.8655 10.6413 21.866L10.6385 21.8662Z" fill="#F05A29"/>
<path d="M10.6425 7.99203C10.8452 7.99203 11.0096 7.82767 11.0096 7.62492C11.0096 7.42217 10.8452 7.25781 10.6425 7.25781C10.4398 7.25781 10.2754 7.42217 10.2754 7.62492C10.2754 7.82767 10.4398 7.99203 10.6425 7.99203Z" fill="#F05A29"/>
<path d="M10.6425 23.8729C10.8452 23.8729 11.0096 23.7085 11.0096 23.5058C11.0096 23.303 10.8452 23.1387 10.6425 23.1387C10.4398 23.1387 10.2754 23.303 10.2754 23.5058C10.2754 23.7085 10.4398 23.8729 10.6425 23.8729Z" fill="#F05A29"/>
<path d="M2.71086 15.9334C2.91361 15.9334 3.07797 15.7691 3.07797 15.5663C3.07797 15.3636 2.91361 15.1992 2.71086 15.1992C2.50811 15.1992 2.34375 15.3636 2.34375 15.5663C2.34375 15.7691 2.50811 15.9334 2.71086 15.9334Z" fill="#F05A29"/>
<path d="M18.5741 15.9334C18.7769 15.9334 18.9412 15.7691 18.9412 15.5663C18.9412 15.3636 18.7769 15.1992 18.5741 15.1992C18.3714 15.1992 18.207 15.3636 18.207 15.5663C18.207 15.7691 18.3714 15.9334 18.5741 15.9334Z" fill="#F05A29"/>
<path d="M5.02726 21.5467C5.23001 21.5467 5.39437 21.3824 5.39437 21.1796C5.39437 20.9769 5.23001 20.8125 5.02726 20.8125C4.82452 20.8125 4.66016 20.9769 4.66016 21.1796C4.66016 21.3824 4.82452 21.5467 5.02726 21.5467Z" fill="#F05A29"/>
<path d="M5.03312 10.3238C5.23587 10.3238 5.40023 10.1595 5.40023 9.95671C5.40023 9.75396 5.23587 9.5896 5.03312 9.5896C4.83038 9.5896 4.66602 9.75396 4.66602 9.95671C4.66602 10.1595 4.83038 10.3238 5.03312 10.3238Z" fill="#F05A29"/>
<path d="M16.2519 21.5409C16.4546 21.5409 16.619 21.3765 16.619 21.1737C16.619 20.971 16.4546 20.8066 16.2519 20.8066C16.0491 20.8066 15.8848 20.971 15.8848 21.1737C15.8848 21.3765 16.0491 21.5409 16.2519 21.5409Z" fill="#F05A29"/>
<path d="M3.76555 11.9627C3.96829 11.9627 4.13265 11.7984 4.13265 11.5956C4.13265 11.3929 3.96829 11.2285 3.76555 11.2285C3.5628 11.2285 3.39844 11.3929 3.39844 11.5956C3.39844 11.7984 3.5628 11.9627 3.76555 11.9627Z" fill="#F05A29"/>
<path d="M17.5195 19.9022C17.7222 19.9022 17.8866 19.7378 17.8866 19.5351C17.8866 19.3323 17.7222 19.168 17.5195 19.168C17.3167 19.168 17.1523 19.3323 17.1523 19.5351C17.1523 19.7378 17.3167 19.9022 17.5195 19.9022Z" fill="#F05A29"/>
<path d="M6.67765 22.8026C6.8804 22.8026 7.04476 22.6382 7.04476 22.4355C7.04476 22.2327 6.8804 22.0684 6.67765 22.0684C6.47491 22.0684 6.31055 22.2327 6.31055 22.4355C6.31055 22.6382 6.47491 22.8026 6.67765 22.8026Z" fill="#F05A29"/>
<path d="M8.58781 8.26351C8.79056 8.26351 8.95492 8.09915 8.95492 7.8964C8.95492 7.69366 8.79056 7.5293 8.58781 7.5293C8.38506 7.5293 8.2207 7.69366 8.2207 7.8964C8.2207 8.09915 8.38506 8.26351 8.58781 8.26351Z" fill="#F05A29"/>
<path d="M12.6972 23.6034C12.8999 23.6034 13.0643 23.439 13.0643 23.2362C13.0643 23.0335 12.8999 22.8691 12.6972 22.8691C12.4944 22.8691 12.3301 23.0335 12.3301 23.2362C12.3301 23.439 12.4944 23.6034 12.6972 23.6034Z" fill="#F05A29"/>
<path d="M2.98039 17.9862C3.18314 17.9862 3.3475 17.8218 3.3475 17.6191C3.3475 17.4163 3.18314 17.252 2.98039 17.252C2.77764 17.252 2.61328 17.4163 2.61328 17.6191C2.61328 17.8218 2.77764 17.9862 2.98039 17.9862Z" fill="#F05A29"/>
<path d="M18.3046 13.8787C18.5074 13.8787 18.6717 13.7144 18.6717 13.5116C18.6717 13.3089 18.5074 13.1445 18.3046 13.1445C18.1019 13.1445 17.9375 13.3089 17.9375 13.5116C17.9375 13.7144 18.1019 13.8787 18.3046 13.8787Z" fill="#F05A29"/>
<path d="M3.76555 19.9022C3.96829 19.9022 4.13265 19.7378 4.13265 19.5351C4.13265 19.3323 3.96829 19.168 3.76555 19.168C3.5628 19.168 3.39844 19.3323 3.39844 19.5351C3.39844 19.7378 3.5628 19.9022 3.76555 19.9022Z" fill="#F05A29"/>
<path d="M14.6093 22.8026C14.812 22.8026 14.9764 22.6382 14.9764 22.4355C14.9764 22.2327 14.812 22.0684 14.6093 22.0684C14.4065 22.0684 14.2422 22.2327 14.2422 22.4355C14.2422 22.6382 14.4065 22.8026 14.6093 22.8026Z" fill="#F05A29"/>
<path d="M6.67765 9.06234C6.8804 9.06234 7.04476 8.89798 7.04476 8.69523C7.04476 8.49248 6.8804 8.32812 6.67765 8.32812C6.47491 8.32812 6.31055 8.49248 6.31055 8.69523C6.31055 8.89798 6.47491 9.06234 6.67765 9.06234Z" fill="#F05A29"/>
<path d="M12.6972 8.26351C12.8999 8.26351 13.0643 8.09915 13.0643 7.8964C13.0643 7.69366 12.8999 7.5293 12.6972 7.5293C12.4944 7.5293 12.3301 7.69366 12.3301 7.8964C12.3301 8.09915 12.4944 8.26351 12.6972 8.26351Z" fill="#F05A29"/>
<path d="M8.58781 23.6034C8.79056 23.6034 8.95492 23.439 8.95492 23.2362C8.95492 23.0335 8.79056 22.8691 8.58781 22.8691C8.38506 22.8691 8.2207 23.0335 8.2207 23.2362C8.2207 23.439 8.38506 23.6034 8.58781 23.6034Z" fill="#F05A29"/>
<path d="M18.3046 17.9862C18.5074 17.9862 18.6717 17.8218 18.6717 17.6191C18.6717 17.4163 18.5074 17.252 18.3046 17.252C18.1019 17.252 17.9375 17.4163 17.9375 17.6191C17.9375 17.8218 18.1019 17.9862 18.3046 17.9862Z" fill="#F05A29"/>
<path d="M2.98039 13.8787C3.18314 13.8787 3.3475 13.7144 3.3475 13.5116C3.3475 13.3089 3.18314 13.1445 2.98039 13.1445C2.77764 13.1445 2.61328 13.3089 2.61328 13.5116C2.61328 13.7144 2.77764 13.8787 2.98039 13.8787Z" fill="#F05A29"/>
</svg>
