<svg width="25" height="25" viewBox="0 0 25 25" fill="none" xmlns="http://www.w3.org/2000/svg">
<path d="M10.3963 20.7353C10.3158 20.7353 10.2368 20.7143 10.1669 20.6743C10.0971 20.6343 10.039 20.5768 9.99824 20.5074C8.48878 17.9358 4.46439 12.4597 4.42378 12.4047C4.35808 12.3154 4.32671 12.2055 4.33541 12.095C4.3441 11.9845 4.39228 11.8808 4.47113 11.8029L5.70884 10.5798C5.78561 10.504 5.88653 10.4574 5.99407 10.4482C6.1016 10.4391 6.20895 10.4679 6.29744 10.5297L10.3002 13.3247C12.9812 9.8875 15.4711 7.51289 17.1096 6.11133C18.9554 4.5325 20.1307 3.82182 20.1799 3.79233C20.2516 3.74929 20.3337 3.72656 20.4173 3.72656H22.4196C22.5131 3.72656 22.6045 3.75499 22.6815 3.80808C22.7586 3.86118 22.8176 3.93643 22.8509 4.02387C22.8842 4.11131 22.8902 4.2068 22.8679 4.29768C22.8457 4.38857 22.7964 4.47056 22.7265 4.53278C17.0415 9.59636 10.8589 20.3937 10.7972 20.502C10.7571 20.5724 10.6992 20.6309 10.6294 20.6719C10.5595 20.7128 10.4801 20.7346 10.3991 20.7351L10.3963 20.7353Z" fill="#656565"/>
<path d="M10.4003 6.86117C10.6031 6.86117 10.7674 6.69681 10.7674 6.49406C10.7674 6.29131 10.6031 6.12695 10.4003 6.12695C10.1976 6.12695 10.0332 6.29131 10.0332 6.49406C10.0332 6.69681 10.1976 6.86117 10.4003 6.86117Z" fill="#656565"/>
<path d="M10.4003 22.742C10.6031 22.742 10.7674 22.5777 10.7674 22.3749C10.7674 22.1722 10.6031 22.0078 10.4003 22.0078C10.1976 22.0078 10.0332 22.1722 10.0332 22.3749C10.0332 22.5777 10.1976 22.742 10.4003 22.742Z" fill="#656565"/>
<path d="M2.46867 14.8026C2.67142 14.8026 2.83578 14.6382 2.83578 14.4355C2.83578 14.2327 2.67142 14.0684 2.46867 14.0684C2.26592 14.0684 2.10156 14.2327 2.10156 14.4355C2.10156 14.6382 2.26592 14.8026 2.46867 14.8026Z" fill="#656565"/>
<path d="M18.332 14.8006C18.5347 14.8006 18.6991 14.6363 18.6991 14.4335C18.6991 14.2308 18.5347 14.0664 18.332 14.0664C18.1292 14.0664 17.9648 14.2308 17.9648 14.4335C17.9648 14.6363 18.1292 14.8006 18.332 14.8006Z" fill="#656565"/>
<path d="M4.78508 20.4159C4.98782 20.4159 5.15218 20.2515 5.15218 20.0487C5.15218 19.846 4.98782 19.6816 4.78508 19.6816C4.58233 19.6816 4.41797 19.846 4.41797 20.0487C4.41797 20.2515 4.58233 20.4159 4.78508 20.4159Z" fill="#656565"/>
<path d="M4.79094 9.1932C4.99368 9.1932 5.15804 9.02884 5.15804 8.82609C5.15804 8.62334 4.99368 8.45898 4.79094 8.45898C4.58819 8.45898 4.42383 8.62334 4.42383 8.82609C4.42383 9.02884 4.58819 9.1932 4.79094 9.1932Z" fill="#656565"/>
<path d="M16.0097 20.41C16.2124 20.41 16.3768 20.2456 16.3768 20.0429C16.3768 19.8401 16.2124 19.6758 16.0097 19.6758C15.8069 19.6758 15.6426 19.8401 15.6426 20.0429C15.6426 20.2456 15.8069 20.41 16.0097 20.41Z" fill="#656565"/>
<path d="M3.52336 10.8319C3.72611 10.8319 3.89047 10.6675 3.89047 10.4648C3.89047 10.262 3.72611 10.0977 3.52336 10.0977C3.32061 10.0977 3.15625 10.262 3.15625 10.4648C3.15625 10.6675 3.32061 10.8319 3.52336 10.8319Z" fill="#656565"/>
<path d="M17.2773 18.7713C17.48 18.7713 17.6444 18.607 17.6444 18.4042C17.6444 18.2015 17.48 18.0371 17.2773 18.0371C17.0745 18.0371 16.9102 18.2015 16.9102 18.4042C16.9102 18.607 17.0745 18.7713 17.2773 18.7713Z" fill="#656565"/>
<path d="M6.43547 21.6717C6.63822 21.6717 6.80257 21.5074 6.80257 21.3046C6.80257 21.1019 6.63822 20.9375 6.43547 20.9375C6.23272 20.9375 6.06836 21.1019 6.06836 21.3046C6.06836 21.5074 6.23272 21.6717 6.43547 21.6717Z" fill="#656565"/>
<path d="M8.34562 7.13265C8.54837 7.13265 8.71273 6.96829 8.71273 6.76555C8.71273 6.5628 8.54837 6.39844 8.34562 6.39844C8.14288 6.39844 7.97852 6.5628 7.97852 6.76555C7.97852 6.96829 8.14288 7.13265 8.34562 7.13265Z" fill="#656565"/>
<path d="M12.455 22.4725C12.6577 22.4725 12.8221 22.3081 12.8221 22.1054C12.8221 21.9026 12.6577 21.7383 12.455 21.7383C12.2523 21.7383 12.0879 21.9026 12.0879 22.1054C12.0879 22.3081 12.2523 22.4725 12.455 22.4725Z" fill="#656565"/>
<path d="M2.7382 16.8553C2.94095 16.8553 3.10531 16.6909 3.10531 16.4882C3.10531 16.2855 2.94095 16.1211 2.7382 16.1211C2.53545 16.1211 2.37109 16.2855 2.37109 16.4882C2.37109 16.6909 2.53545 16.8553 2.7382 16.8553Z" fill="#656565"/>
<path d="M18.0624 12.7479C18.2652 12.7479 18.4295 12.5835 18.4295 12.3808C18.4295 12.178 18.2652 12.0137 18.0624 12.0137C17.8597 12.0137 17.6953 12.178 17.6953 12.3808C17.6953 12.5835 17.8597 12.7479 18.0624 12.7479Z" fill="#656565"/>
<path d="M3.52336 18.7713C3.72611 18.7713 3.89047 18.607 3.89047 18.4042C3.89047 18.2015 3.72611 18.0371 3.52336 18.0371C3.32061 18.0371 3.15625 18.2015 3.15625 18.4042C3.15625 18.607 3.32061 18.7713 3.52336 18.7713Z" fill="#656565"/>
<path d="M14.3671 21.6717C14.5699 21.6717 14.7342 21.5074 14.7342 21.3046C14.7342 21.1019 14.5699 20.9375 14.3671 20.9375C14.1644 20.9375 14 21.1019 14 21.3046C14 21.5074 14.1644 21.6717 14.3671 21.6717Z" fill="#656565"/>
<path d="M6.43547 7.93148C6.63822 7.93148 6.80257 7.76712 6.80257 7.56437C6.80257 7.36163 6.63822 7.19727 6.43547 7.19727C6.23272 7.19727 6.06836 7.36163 6.06836 7.56437C6.06836 7.76712 6.23272 7.93148 6.43547 7.93148Z" fill="#656565"/>
<path d="M12.455 7.13265C12.6577 7.13265 12.8221 6.96829 12.8221 6.76555C12.8221 6.5628 12.6577 6.39844 12.455 6.39844C12.2523 6.39844 12.0879 6.5628 12.0879 6.76555C12.0879 6.96829 12.2523 7.13265 12.455 7.13265Z" fill="#656565"/>
<path d="M8.34562 22.4725C8.54837 22.4725 8.71273 22.3081 8.71273 22.1054C8.71273 21.9026 8.54837 21.7383 8.34562 21.7383C8.14288 21.7383 7.97852 21.9026 7.97852 22.1054C7.97852 22.3081 8.14288 22.4725 8.34562 22.4725Z" fill="#656565"/>
<path d="M18.0624 16.8553C18.2652 16.8553 18.4295 16.6909 18.4295 16.4882C18.4295 16.2855 18.2652 16.1211 18.0624 16.1211C17.8597 16.1211 17.6953 16.2855 17.6953 16.4882C17.6953 16.6909 17.8597 16.8553 18.0624 16.8553Z" fill="#656565"/>
<path d="M2.7382 12.7479C2.94095 12.7479 3.10531 12.5835 3.10531 12.3808C3.10531 12.178 2.94095 12.0137 2.7382 12.0137C2.53545 12.0137 2.37109 12.178 2.37109 12.3808C2.37109 12.5835 2.53545 12.7479 2.7382 12.7479Z" fill="#656565"/>
</svg>
