<svg width="65" height="66" viewBox="0 0 65 66" fill="none" xmlns="http://www.w3.org/2000/svg">
<path d="M55.6096 1H9.39036C4.48035 1 0.5 4.98037 0.5 9.89038V56.1097C0.5 61.0197 4.48035 65 9.39036 65H55.6096C60.5196 65 64.5 61.0197 64.5 56.1097V9.89038C64.5 4.98037 60.5196 1 55.6096 1Z" fill="white" stroke="#E6E7E8" stroke-width="0.617386" stroke-miterlimit="10"/>
<path d="M50.4415 24.764L32.7913 15.0825L32.4066 15L15.1126 24.4766L14.5573 24.764L14.5 44.9611L14.6145 45.3775L23.0711 50.2575L24.2975 51V40.5773L32.5 35.8506L40.7 40.5773V51L50.1688 45.5089L50.5 45.1931L50.4402 24.7628L50.4415 24.764ZM18.3186 25.9306L32.5012 18.1438L46.6814 25.9306L42.1244 28.3925L32.9022 23.0458L32.5037 22.8344L22.8756 28.3925L18.3186 25.9306ZM21.5272 38.9003V46.1289L17.274 43.6631L17.3251 28.5575L22.5295 31.3507L28.5593 34.8581L22.5158 38.3319L21.5284 38.9016L21.5272 38.9003ZM41.9874 31.6433L47.6749 28.5562L47.726 43.6618L43.4728 46.1276V39.2458L43.4691 38.8913L36.4419 34.8555L41.9887 31.6421L41.9874 31.6433ZM32.5012 26.044L39.2869 29.9702L32.5012 33.8965L25.7144 29.9702L32.5012 26.044Z" fill="#0D0C0C"/>
</svg>
