<svg width="65" height="66" viewBox="0 0 65 66" fill="none" xmlns="http://www.w3.org/2000/svg">
<path d="M55.6096 1H9.39036C4.48035 1 0.5 4.98037 0.5 9.89038V56.1097C0.5 61.0197 4.48035 65 9.39036 65H55.6096C60.5196 65 64.5 61.0197 64.5 56.1097V9.89038C64.5 4.98037 60.5196 1 55.6096 1Z" fill="white" stroke="#E6E7E8" stroke-width="0.617386" stroke-miterlimit="10"/>
<path d="M16.7148 23.2142H23.7494L22.8251 22.5121C24.268 27.8005 25.7145 33.0853 27.1574 38.3737C27.4467 39.432 27.6725 40.4551 28.6427 41.1466C29.5387 41.7852 30.5689 41.7075 31.5991 41.7075H49.0023C50.237 41.7075 50.237 39.7919 49.0023 39.7919H32.6821C31.9342 39.7919 31.1792 39.8272 30.4348 39.7919C29.4647 39.746 29.3094 38.9769 29.1013 38.222C28.311 35.3361 27.5243 32.4468 26.7341 29.5609C26.0461 27.042 25.3582 24.5231 24.6702 22.0041C24.5609 21.5984 24.1657 21.3021 23.7459 21.3021H16.7112C15.4765 21.3021 15.4765 23.2177 16.7112 23.2177L16.7148 23.2142Z" fill="#3F3F3F"/>
<path d="M47.0236 38.0383H32.3722C31.5149 38.0383 30.774 37.4173 30.5906 36.5424L26.8686 22.3285C26.6146 21.1325 27.4825 20 28.6502 20H49.0381C50.1529 20 51.0102 21.0372 50.8444 22.1944L48.8299 36.4084C48.6959 37.3468 47.9268 38.0418 47.0236 38.0418V38.0383Z" fill="#F05A29"/>
<path d="M42.3932 21.3438L35.2773 29.9942H38.4525L35.6795 36.0058L43.328 27.7222L40.0541 27.6905L42.3932 21.3438Z" fill="white"/>
<path d="M34.3934 40.5039C32.8976 40.5039 31.6875 41.714 31.6875 43.2098C31.6875 44.7057 32.8976 45.9158 34.3934 45.9158C35.8892 45.9158 37.0993 44.7057 37.0993 43.2098C37.0993 41.714 35.8892 40.5039 34.3934 40.5039ZM35.5682 43.2098C35.5682 43.859 35.0425 44.3811 34.3969 44.3811C33.7513 44.3811 33.2257 43.8554 33.2257 43.2098C33.2257 42.5607 33.7513 42.0386 34.3969 42.0386C35.0425 42.0386 35.5682 42.5642 35.5682 43.2098Z" fill="#3F3F3F"/>
<path d="M43.3075 40.5039C41.8116 40.5039 40.6016 41.714 40.6016 43.2098C40.6016 44.7057 41.8116 45.9158 43.3075 45.9158C44.8033 45.9158 46.0134 44.7057 46.0134 43.2098C46.0134 41.714 44.8033 40.5039 43.3075 40.5039ZM44.4823 43.2098C44.4823 43.859 43.9566 44.3811 43.311 44.3811C42.6654 44.3811 42.1397 43.8554 42.1397 43.2098C42.1397 42.5607 42.6654 42.0386 43.311 42.0386C43.9566 42.0386 44.4823 42.5642 44.4823 43.2098Z" fill="#3F3F3F"/>
<path d="M17.0321 29.4092H21.8547C22.2957 29.4092 22.6485 29.0528 22.6485 28.6154C22.6485 28.1779 22.2922 27.8216 21.8547 27.8216H17.0321C16.5911 27.8216 16.2383 28.1779 16.2383 28.6154C16.2383 29.0528 16.5946 29.4092 17.0321 29.4092Z" fill="#3F3F3F"/>
<path d="M18.668 32.3472C18.668 32.7882 19.0243 33.141 19.4618 33.141H23.226C23.667 33.141 24.0198 32.7846 24.0198 32.3472C24.0198 31.9062 23.6635 31.5534 23.226 31.5534H19.4618C19.0208 31.5534 18.668 31.9097 18.668 32.3472Z" fill="#3F3F3F"/>
<path d="M16.2851 31.5534H15.2938C14.8528 31.5534 14.5 31.9097 14.5 32.3472C14.5 32.7882 14.8563 33.141 15.2938 33.141H16.2851C16.7261 33.141 17.0789 32.7846 17.0789 32.3472C17.0789 31.9062 16.7226 31.5534 16.2851 31.5534Z" fill="#3F3F3F"/>
<path d="M24.0477 35.4102H18.1102C17.6692 35.4102 17.3164 35.7665 17.3164 36.2039C17.3164 36.6449 17.6727 36.9977 18.1102 36.9977H24.0477C24.4887 36.9977 24.8415 36.6414 24.8415 36.2039C24.8415 35.7629 24.4851 35.4102 24.0477 35.4102Z" fill="#3F3F3F"/>
</svg>
