<svg width="26" height="25" viewBox="0 0 26 25" fill="none" xmlns="http://www.w3.org/2000/svg">
<path d="M18.9847 8.11944C18.7893 7.92416 18.5244 7.81445 18.2482 7.81445C17.972 7.81445 17.7071 7.92416 17.5118 8.11944L12.7347 12.8965L7.95759 8.11944C7.76225 7.92416 7.49734 7.81445 7.22113 7.81445C6.94492 7.81445 6.68001 7.92416 6.48467 8.11944C6.28939 8.31478 6.17969 8.57968 6.17969 8.8559C6.17969 9.13211 6.28939 9.39701 6.48467 9.59236L11.2618 14.3694L6.48467 19.1465C6.28939 19.3419 6.17969 19.6068 6.17969 19.883C6.17969 20.1592 6.28939 20.4241 6.48467 20.6194C6.68001 20.8147 6.94492 20.9244 7.22113 20.9244C7.49734 20.9244 7.76225 20.8147 7.95759 20.6194L12.7347 15.8424L17.5118 20.6194C17.7071 20.8147 17.972 20.9244 18.2482 20.9244C18.5244 20.9244 18.7893 20.8147 18.9847 20.6194C19.18 20.4241 19.2897 20.1592 19.2897 19.883C19.2897 19.6068 19.18 19.3419 18.9847 19.1465L14.2076 14.3694L18.9847 9.59236C19.18 9.39701 19.2897 9.13211 19.2897 8.8559C19.2897 8.57968 19.18 8.31478 18.9847 8.11944Z" fill="#656565"/>
</svg>
