<svg width="20" height="20" viewBox="0 0 20 20" fill="none" xmlns="http://www.w3.org/2000/svg">
<g clip-path="url(#clip0_2040_5272)">
<path d="M6.48438 15.3125H15.2617C16.568 15.3125 17.7244 14.4391 18.0751 13.1882L19.9767 6.64797C20.0282 6.47094 19.9933 6.28004 19.8827 6.13262C19.772 5.9852 19.5984 5.89844 19.4141 5.89844H4.61125L3.9232 2.68664C3.5884 1.12988 2.18488 0 0.585938 0C0.262344 0 0 0.262344 0 0.585938C0 0.909531 0.262344 1.17188 0.585938 1.17188C1.61941 1.17188 2.5616 1.92902 2.77746 2.93258L4.93395 12.9988C5.04328 13.5073 5.28844 13.9776 5.63672 14.3591C5.09461 14.6589 4.72656 15.2364 4.72656 15.8984C4.72656 16.7079 5.27676 17.391 6.0227 17.5943C5.94285 17.795 5.89844 18.0134 5.89844 18.2422C5.89844 19.2114 6.68699 20 7.65625 20C8.62551 20 9.41406 19.2114 9.41406 18.2422C9.41406 18.0368 9.37832 17.8396 9.31328 17.6562H14.2023C14.1373 17.8396 14.1016 18.0368 14.1016 18.2422C14.1016 19.2114 14.8901 20 15.8594 20C16.8286 20 17.6172 19.2114 17.6172 18.2422C17.6172 18.0368 17.5814 17.8396 17.5164 17.6562H18.2031C18.5267 17.6562 18.7891 17.3939 18.7891 17.0703C18.7891 16.7467 18.5267 16.4844 18.2031 16.4844H6.48438C6.16129 16.4844 5.89844 16.2215 5.89844 15.8984C5.89844 15.5754 6.16129 15.3125 6.48438 15.3125Z" fill="url(#paint0_linear_2040_5272)"/>
<path d="M15.3688 8.23327C15.0496 8.18065 14.748 8.39682 14.6954 8.71612L14.1095 12.2708C14.0568 12.5901 14.273 12.8916 14.5923 12.9442C14.9125 12.9971 15.2132 12.7798 15.2657 12.4614L15.8517 8.90671C15.9043 8.58737 15.6882 8.28589 15.3688 8.23327ZM8.82043 8.71608C8.76781 8.39678 8.4664 8.18061 8.14699 8.23323C7.82769 8.28585 7.61152 8.58737 7.66414 8.90667L8.25008 12.4614C8.30258 12.7799 8.60343 12.997 8.92351 12.9442C9.24281 12.8916 9.45898 12.5901 9.40636 12.2708L8.82043 8.71608ZM11.7579 8.22546C11.4343 8.22546 11.172 8.4878 11.172 8.81139V12.3661C11.172 12.6897 11.4343 12.952 11.7579 12.952C12.0815 12.952 12.3439 12.6897 12.3439 12.3661V8.81139C12.3439 8.4878 12.0815 8.22546 11.7579 8.22546Z" fill="url(#paint1_linear_2040_5272)"/>
</g>
<defs>
<linearGradient id="paint0_linear_2040_5272" x1="10" y1="20" x2="10" y2="0" gradientUnits="userSpaceOnUse">
<stop stop-color="#FD5900"/>
<stop offset="1" stop-color="#FFDE00"/>
</linearGradient>
<linearGradient id="paint1_linear_2040_5272" x1="11.7579" y1="12.9521" x2="11.7579" y2="8.22538" gradientUnits="userSpaceOnUse">
<stop stop-color="#FFE59A"/>
<stop offset="1" stop-color="#FFFFD5"/>
</linearGradient>
<clipPath id="clip0_2040_5272">
<rect width="20" height="20" fill="white"/>
</clipPath>
</defs>
</svg>
