<svg width="20" height="20" viewBox="0 0 20 20" fill="none" xmlns="http://www.w3.org/2000/svg">
<g clip-path="url(#clip0_2040_5290)">
<path d="M12.3437 1.79694V8.24217H5.3125V1.79694C5.3125 1.46877 5.57027 1.211 5.89844 1.211H11.7577C12.0859 1.211 12.3437 1.46877 12.3437 1.79694Z" fill="#EC9046"/>
<path d="M12.3437 1.79694V8.24217H8.82812V1.211H11.7578C12.0859 1.211 12.3437 1.46877 12.3437 1.79694Z" fill="#E6733C"/>
<path d="M9.41406 1.211V2.96877C9.41406 3.29686 9.15629 3.55471 8.82812 3.55471C8.49996 3.55471 8.24219 3.29686 8.24219 2.96877V1.211H9.41406Z" fill="#FFDFB3"/>
<path d="M9.41406 1.211V2.96877C9.41406 3.29686 9.15629 3.55471 8.82812 3.55471V1.211H9.41406Z" fill="#FFCF99"/>
<path d="M8.82805 7.07037V15.2734H2.34375V7.65631C2.34375 7.33272 2.60609 7.07037 2.92969 7.07037H8.82805Z" fill="#F6B73C"/>
<path d="M15.3124 7.65631V15.2734H8.82812V7.07037H14.7265C15.0501 7.07037 15.3124 7.33272 15.3124 7.65631Z" fill="#F29737"/>
<path d="M6.48438 7.07037V8.82815C6.48438 9.15631 6.2266 9.41408 5.89844 9.41408C5.57027 9.41408 5.3125 9.15631 5.3125 8.82815V7.07037H6.48438Z" fill="#FFDFB3"/>
<path d="M12.3438 7.07037V8.82815C12.3438 9.15631 12.086 9.41408 11.7578 9.41408C11.4296 9.41408 11.1719 9.15631 11.1719 8.82815V7.07037H12.3438Z" fill="#FFCF99"/>
<path d="M17.0703 15.2733C16.7464 15.2733 16.4844 15.0113 16.4844 14.6874V6.03693C16.4844 5.36689 16.8569 4.76435 17.456 4.46451L19.152 3.6165C19.4409 3.47345 19.7934 3.58904 19.9382 3.87857C20.0829 4.1681 19.9656 4.52002 19.6761 4.66478L17.9801 5.51279C17.7804 5.61236 17.6562 5.81318 17.6562 6.03693V14.6874C17.6562 15.0113 17.3942 15.2733 17.0703 15.2733Z" fill="#42516D"/>
<path d="M16.4842 16.4453H1.17188C0.524648 16.4453 0 15.9206 0 15.2734C0 14.6261 0.524648 14.1015 1.17188 14.1015H17.6561V15.2734C17.6561 15.9206 17.1314 16.4453 16.4842 16.4453Z" fill="#6F7D96"/>
<path d="M8.82812 16.4453H16.4843C17.1315 16.4453 17.6562 15.9205 17.6562 15.2734V14.1015H8.82812V16.4453Z" fill="#66728B"/>
<path d="M2.92965 15.2734C1.95695 15.2734 1.17188 16.0585 1.17188 17.0312C1.17188 18.0038 1.95699 18.789 2.92965 18.789C3.9023 18.789 4.68742 18.0038 4.68742 17.0312C4.68746 16.0585 3.90234 15.2734 2.92965 15.2734Z" fill="#495A79"/>
<path d="M4.68746 17.0312C4.68746 18.0038 3.90234 18.789 2.92969 18.789V15.2734C3.90234 15.2734 4.68746 16.0585 4.68746 17.0312Z" fill="#42516D"/>
<path d="M2.92969 16.4453C2.60152 16.4453 2.34375 16.703 2.34375 17.0312C2.34375 17.3593 2.60152 17.6171 2.92969 17.6171C3.25785 17.6171 3.51562 17.3593 3.51562 17.0312C3.51562 16.703 3.25785 16.4453 2.92969 16.4453Z" fill="#E0E4EC"/>
<path d="M3.51562 17.0312C3.51562 17.3593 3.25785 17.6171 2.92969 17.6171V16.4453C3.25785 16.4453 3.51562 16.703 3.51562 17.0312Z" fill="#D1D7E3"/>
<path d="M14.7265 15.2734C13.7538 15.2734 12.9297 16.0585 12.9297 17.0312C12.9297 18.0038 13.7539 18.7889 14.7265 18.7889C15.6992 18.7889 16.4843 18.0037 16.4843 17.0312C16.4843 16.0585 15.6992 15.2734 14.7265 15.2734Z" fill="#495A79"/>
<path d="M16.4843 17.0312C16.4843 18.0038 15.6992 18.789 14.7266 18.789V15.2734C15.6992 15.2734 16.4843 16.0585 16.4843 17.0312Z" fill="#42516D"/>
<path d="M14.7266 16.4453C14.3984 16.4453 14.1406 16.703 14.1406 17.0312C14.1406 17.3593 14.3984 17.6171 14.7266 17.6171C15.0547 17.6171 15.3125 17.3593 15.3125 17.0312C15.3125 16.703 15.0547 16.4453 14.7266 16.4453Z" fill="#E0E4EC"/>
<path d="M15.3125 17.0312C15.3125 17.3593 15.0547 17.6171 14.7266 17.6171V16.4453C15.0547 16.4453 15.3125 16.703 15.3125 17.0312Z" fill="#D1D7E3"/>
</g>
<defs>
<clipPath id="clip0_2040_5290">
<rect width="20" height="20" fill="white"/>
</clipPath>
</defs>
</svg>
