<svg width="20" height="20" viewBox="0 0 20 20" fill="none" xmlns="http://www.w3.org/2000/svg">
<path d="M16.875 1.25H3.125C2.62772 1.25 2.15081 1.44754 1.79917 1.79917C1.44754 2.15081 1.25 2.62772 1.25 3.125V16.875C1.25 17.3723 1.44754 17.8492 1.79917 18.2008C2.15081 18.5525 2.62772 18.75 3.125 18.75H10.9469C11.5216 18.7515 12.0908 18.6391 12.6218 18.4192C13.1527 18.1992 13.6347 17.8762 14.04 17.4688L17.4688 14.04C17.8762 13.6347 18.1992 13.1527 18.4192 12.6218C18.6391 12.0908 18.7515 11.5216 18.75 10.9469V3.125C18.75 2.62772 18.5525 2.15081 18.2008 1.79917C17.8492 1.44754 17.3723 1.25 16.875 1.25Z" fill="#FFCA2B"/>
<path d="M13.75 11.875C13.2532 11.8765 12.7771 12.0745 12.4258 12.4258C12.0745 12.7771 11.8765 13.2532 11.875 13.75V18.65C12.6945 18.4727 13.4454 18.0625 14.0375 17.4688L17.4688 14.0375C18.0625 13.4454 18.4727 12.6945 18.65 11.875H13.75Z" fill="#F59070"/>
</svg>
