<svg width="20" height="20" viewBox="0 0 20 20" fill="none" xmlns="http://www.w3.org/2000/svg">
<g clip-path="url(#clip0_2040_5314)">
<path d="M17.0674 17.07C20.9721 13.1653 20.9721 6.83465 17.0674 2.93C13.1628 -0.974653 6.83207 -0.974653 2.92742 2.93C-0.977232 6.83465 -0.977232 13.1653 2.92742 17.07C6.83207 20.9747 13.1628 20.9747 17.0674 17.07Z" fill="#FFC136"/>
<path d="M20 9.98392C19.9978 8.64685 19.7327 7.37189 19.2547 6.20685L15.955 2.90717L4.04492 17.0928L6.20688 19.2547C7.38145 19.7367 8.66762 20.0021 10.016 19.9999C15.5389 19.9911 20.0088 15.5067 20 9.98392Z" fill="#F4A300"/>
<path d="M4.04492 2.90723H15.955V17.0929H4.04492V2.90723Z" fill="#F4F2EF"/>
<path d="M10 2.90704H15.9551V17.093H10V2.90704Z" fill="#E5E1DC"/>
<path d="M5.42578 13.1882H14.5756V15.3907H5.42578V13.1882Z" fill="#7343DD"/>
<path d="M10 13.1882H14.5749V15.3907H10V13.1882Z" fill="#552CB7"/>
<path d="M5.42578 4.42151H8.79773V11.9721H5.42578V4.42151Z" fill="#B7B4B2"/>
<path d="M10 4.42151H14.5749V7.41881H10V4.42151Z" fill="#E54C00"/>
<path d="M10 8.78278H14.5749V11.9722H10V8.78278Z" fill="#2AD1B5"/>
</g>
<defs>
<clipPath id="clip0_2040_5314">
<rect width="20" height="20" fill="white"/>
</clipPath>
</defs>
</svg>
