<svg width="32" height="32" viewBox="0 0 32 32" fill="none" xmlns="http://www.w3.org/2000/svg">
<g clip-path="url(#clip0_877_9390)">
<path d="M30.3589 6.33301H1.64106C0.738437 6.33301 0 7.07145 0 7.97401V26.0253C0 26.9278 0.738437 27.6664 1.64106 27.6664H30.359C31.2615 27.6664 32.0001 26.9279 32.0001 26.0253V7.97401C32 7.07145 31.2616 6.33301 30.3589 6.33301ZM29.7431 7.5637L16.944 17.1638C16.7139 17.3389 16.3606 17.4485 15.9999 17.4469C15.6393 17.4485 15.2861 17.3389 15.0559 17.1638L2.25681 7.5637H29.7431ZM22.9062 17.7973L29.8806 26.4127C29.8876 26.4213 29.8962 26.4279 29.9036 26.4357H2.09637C2.10375 26.4275 2.11238 26.4213 2.11937 26.4127L9.09375 17.7973C9.30744 17.5331 9.26694 17.1458 9.00225 16.9316C8.73806 16.7179 8.35075 16.7584 8.137 17.0226L1.23075 25.5539V8.33295L14.3179 18.1483C14.8098 18.5147 15.4083 18.6759 15.9999 18.6776C16.5906 18.6763 17.1896 18.5151 17.6819 18.1483L30.769 8.33295V25.5538L23.8629 17.0226C23.6492 16.7584 23.2615 16.7178 22.9977 16.9316C22.7331 17.1453 22.6924 17.5331 22.9062 17.7973Z" fill="#F05A29"/>
</g>
<defs>
<clipPath id="clip0_877_9390">
<rect width="32" height="32" fill="white"/>
</clipPath>
</defs>
</svg>
