<svg width="104" height="74" viewBox="0 0 104 74" fill="none" xmlns="http://www.w3.org/2000/svg">
<path d="M7.04004 9.31995H26.98L24.36 7.32996C28.45 22.32 32.55 37.3 36.64 52.29C37.46 55.29 38.1 58.19 40.85 60.15C43.39 61.96 46.31 61.74 49.23 61.74H98.56C102.06 61.74 102.06 56.3101 98.56 56.3101H52.3C50.18 56.3101 48.04 56.4101 45.93 56.3101C43.18 56.1801 42.74 54 42.15 51.86C39.91 43.68 37.68 35.4901 35.44 27.3101C33.49 20.1701 31.54 13.03 29.59 5.89001C29.28 4.74001 28.16 3.90002 26.97 3.90002H7.03003C3.53003 3.90002 3.53003 9.32996 7.03003 9.32996L7.04004 9.31995Z" fill="#3F3F3F"/>
<path d="M92.95 51.34H51.42C48.99 51.34 46.89 49.58 46.37 47.1L35.82 6.81006C35.1 3.42006 37.56 0.209961 40.87 0.209961H98.6599C101.82 0.209961 104.25 3.15005 103.78 6.43005L98.07 46.72C97.69 49.38 95.51 51.35 92.95 51.35V51.34Z" fill="#F05A29"/>
<path d="M79.82 4.02002L59.65 28.54H68.65L60.79 45.58L82.47 22.1L73.19 22.01L79.82 4.02002Z" fill="white"/>
<path d="M57.15 58.33C52.91 58.33 49.48 61.76 49.48 66C49.48 70.24 52.91 73.67 57.15 73.67C61.39 73.67 64.82 70.24 64.82 66C64.82 61.76 61.39 58.33 57.15 58.33ZM60.48 66C60.48 67.84 58.99 69.3199 57.16 69.3199C55.33 69.3199 53.84 67.83 53.84 66C53.84 64.16 55.33 62.6801 57.16 62.6801C58.99 62.6801 60.48 64.17 60.48 66Z" fill="#3F3F3F"/>
<path d="M82.42 58.33C78.18 58.33 74.75 61.76 74.75 66C74.75 70.24 78.18 73.67 82.42 73.67C86.66 73.67 90.09 70.24 90.09 66C90.09 61.76 86.66 58.33 82.42 58.33ZM85.75 66C85.75 67.84 84.26 69.3199 82.43 69.3199C80.6 69.3199 79.11 67.83 79.11 66C79.11 64.16 80.6 62.6801 82.43 62.6801C84.26 62.6801 85.75 64.17 85.75 66Z" fill="#3F3F3F"/>
<path d="M7.93994 26.88H21.6099C22.8599 26.88 23.8599 25.87 23.8599 24.63C23.8599 23.39 22.8499 22.38 21.6099 22.38H7.93994C6.68994 22.38 5.68994 23.39 5.68994 24.63C5.68994 25.87 6.69994 26.88 7.93994 26.88Z" fill="#3F3F3F"/>
<path d="M12.58 35.21C12.58 36.46 13.59 37.46 14.83 37.46H25.5C26.75 37.46 27.75 36.45 27.75 35.21C27.75 33.96 26.74 32.96 25.5 32.96H14.83C13.58 32.96 12.58 33.97 12.58 35.21Z" fill="#3F3F3F"/>
<path d="M5.82001 32.96H3.01001C1.76001 32.96 0.76001 33.97 0.76001 35.21C0.76001 36.46 1.77001 37.46 3.01001 37.46H5.82001C7.07001 37.46 8.07001 36.45 8.07001 35.21C8.07001 33.96 7.06001 32.96 5.82001 32.96Z" fill="#3F3F3F"/>
<path d="M27.82 43.89H10.99C9.73999 43.89 8.73999 44.9 8.73999 46.14C8.73999 47.39 9.74999 48.39 10.99 48.39H27.82C29.07 48.39 30.07 47.38 30.07 46.14C30.07 44.89 29.06 43.89 27.82 43.89Z" fill="#3F3F3F"/>
</svg>
