<svg width="150" height="44" viewBox="0 0 150 44" fill="none" xmlns="http://www.w3.org/2000/svg">
<path d="M71.7874 13.0375L75.4447 12.843C75.4978 14.0149 75.6959 14.8076 76.0437 15.2161C76.6041 15.8823 77.6429 16.2178 79.155 16.2178C80.4112 16.2178 81.3243 15.9893 81.8847 15.537C82.4451 15.0848 82.7253 14.5352 82.7253 13.8933C82.7253 13.339 82.4934 12.8673 82.0345 12.4831C81.7108 12.2011 80.8266 11.744 79.3773 11.1118C77.9279 10.4796 76.8699 9.94953 76.2032 9.52646C75.5364 9.10338 75.0098 8.55387 74.6282 7.87792C74.2465 7.20198 74.0533 6.40932 74.0533 5.50482C74.0533 3.92437 74.6234 2.60654 75.7635 1.56587C76.9037 0.520347 78.5511 0 80.7107 0C82.8703 0 84.5998 0.51547 85.8028 1.55127C87.0058 2.58707 87.6677 3.96327 87.7836 5.68475L84.0974 5.8501C84.0056 4.95046 83.6819 4.26479 83.1263 3.78336C82.5756 3.30193 81.7591 3.06363 80.6769 3.06363C79.5947 3.06363 78.8555 3.2533 78.4014 3.62774C77.9472 4.00219 77.7202 4.47875 77.7202 5.05257C77.7202 5.59236 77.9279 6.03488 78.3434 6.38501C78.7589 6.74486 79.6816 7.23603 81.1117 7.86335C83.2616 8.79703 84.6288 9.55564 85.2182 10.1343C86.0927 10.9902 86.5323 12.0892 86.5323 13.4314C86.5323 15.0896 85.8801 16.5096 84.5757 17.6864C83.2712 18.8632 81.4547 19.4516 79.1261 19.4516C77.5173 19.4516 76.1259 19.1793 74.9519 18.6347C73.7731 18.09 72.9421 17.3363 72.459 16.3686C71.9758 15.4009 71.7488 14.2872 71.7826 13.0326L71.7874 13.0375Z" fill="white"/>
<path d="M91.3099 5.50502H94.7787L94.484 6.90554C95.2232 6.28795 95.914 5.8503 96.5614 5.58284C97.2088 5.31538 97.8997 5.18408 98.6389 5.18408C100.059 5.18408 101.199 5.67523 102.064 6.6624C102.929 7.6447 103.359 9.1133 103.359 11.0633C103.359 13.5191 102.615 15.5956 101.127 17.2878C99.8515 18.7321 98.3441 19.4567 96.6001 19.4567C94.856 19.4567 93.4501 18.7273 92.5322 17.2635L91.0635 24.3342H87.4062L91.3099 5.50502ZM93.5177 13.3246C93.5177 14.3847 93.7738 15.2114 94.2907 15.795C94.8029 16.3834 95.4116 16.6751 96.1073 16.6751C96.7112 16.6751 97.2909 16.4563 97.8562 16.0138C98.4166 15.5712 98.8804 14.8418 99.2524 13.8206C99.6244 12.7994 99.808 11.8511 99.808 10.9758C99.808 9.95945 99.5665 9.17652 99.0833 8.63187C98.6002 8.08722 97.9818 7.8149 97.233 7.8149C96.5373 7.8149 95.8996 8.0629 95.3246 8.56378C94.7497 9.06466 94.3052 9.79898 93.9912 10.7716C93.6772 11.7441 93.5177 12.5903 93.5177 13.3197V13.3246Z" fill="white"/>
<path d="M117.732 13.4651H108.553C108.543 13.611 108.539 13.7229 108.539 13.8007C108.539 14.71 108.795 15.4395 109.312 15.9939C109.824 16.5482 110.452 16.8303 111.191 16.8303C112.408 16.8303 113.355 16.1981 114.037 14.9289L117.312 15.4784C116.674 16.806 115.824 17.798 114.756 18.4642C113.689 19.1256 112.495 19.4611 111.167 19.4611C109.345 19.4611 107.867 18.8824 106.732 17.7202C105.592 16.5628 105.021 15.0261 105.021 13.1199C105.021 11.2136 105.534 9.59425 106.563 8.14024C107.964 6.17076 109.969 5.18848 112.568 5.18848C114.225 5.18848 115.544 5.70394 116.52 6.73488C117.496 7.76582 117.988 9.21009 117.988 11.0677C117.988 11.9576 117.902 12.76 117.732 13.47V13.4651ZM114.645 11.2185C114.655 11.058 114.66 10.9315 114.66 10.844C114.66 9.83253 114.433 9.07879 113.983 8.57304C113.534 8.0673 112.93 7.81443 112.172 7.81443C111.413 7.81443 110.737 8.10135 110.138 8.67518C109.539 9.249 109.133 10.0951 108.92 11.2185H114.645Z" fill="white"/>
<path d="M132.256 13.4651H123.077C123.067 13.611 123.062 13.7229 123.062 13.8007C123.062 14.71 123.318 15.4395 123.835 15.9939C124.347 16.5482 124.975 16.8303 125.714 16.8303C126.932 16.8303 127.879 16.1981 128.56 14.9289L131.836 15.4784C131.198 16.806 130.348 17.798 129.28 18.4642C128.212 19.1256 127.019 19.4611 125.69 19.4611C123.869 19.4611 122.391 18.8824 121.255 17.7202C120.115 16.5628 119.545 15.0261 119.545 13.1199C119.545 11.2136 120.057 9.59425 121.086 8.14024C122.487 6.17076 124.492 5.18848 127.091 5.18848C128.748 5.18848 130.067 5.70394 131.043 6.73488C132.019 7.76582 132.512 9.21009 132.512 11.0677C132.512 11.9576 132.425 12.76 132.256 13.47V13.4651ZM129.169 11.2185C129.178 11.058 129.183 10.9315 129.183 10.844C129.183 9.83253 128.956 9.07879 128.507 8.57304C128.058 8.0673 127.454 7.81443 126.695 7.81443C125.937 7.81443 125.26 8.10135 124.661 8.67518C124.062 9.249 123.656 10.0951 123.444 11.2185H129.169Z" fill="white"/>
<path d="M146.101 19.1359H142.632L142.937 17.6575C142.275 18.2994 141.623 18.7614 140.98 19.0386C140.338 19.3158 139.613 19.4568 138.806 19.4568C137.405 19.4568 136.265 18.9754 135.395 18.0125C134.526 17.0497 134.086 15.6297 134.086 13.7429C134.086 11.5595 134.7 9.58998 135.922 7.82474C137.144 6.06437 138.767 5.17932 140.782 5.17932C142.603 5.17932 143.966 5.90875 144.874 7.36276L146.343 0.316406H150L146.096 19.131L146.101 19.1359ZM137.651 13.5921C137.651 14.5696 137.898 15.3282 138.386 15.8777C138.874 16.4272 139.478 16.6996 140.188 16.6996C140.85 16.6996 141.468 16.471 142.043 16.0139C142.618 15.5568 143.077 14.8565 143.42 13.9131C143.763 12.9697 143.937 12.0701 143.937 11.2045C143.937 10.2222 143.671 9.42463 143.144 8.81677C142.618 8.2089 142.009 7.9074 141.323 7.9074C140.251 7.9074 139.371 8.50555 138.685 9.70669C137.994 10.903 137.651 12.2014 137.651 13.597V13.5921Z" fill="white"/>
<path d="M78.6146 28.6474C79.5373 27.9958 80.5277 27.6699 81.5906 27.6699C82.5617 27.6699 83.3347 27.918 83.9192 28.4091C84.5038 28.9003 84.8952 29.6929 85.0981 30.7919L88.7843 30.4321C88.5621 28.5501 87.8277 27.0621 86.5764 25.9728C85.3251 24.8835 83.6922 24.334 81.6679 24.334C79.8658 24.334 78.1991 24.8057 76.6676 25.7442C75.1361 26.6876 73.9428 28.0444 73.078 29.8193C72.2132 31.5943 71.7832 33.5541 71.7832 35.6937C71.7832 38.3294 72.4258 40.3378 73.7157 41.7286C75.0056 43.1145 76.7884 43.8099 79.0784 43.8099C81.1123 43.8099 82.8805 43.2507 84.3975 42.1371C85.9097 41.0186 87.0451 39.4041 87.8036 37.2936L83.9289 36.7052C83.5231 37.9793 82.9047 38.9422 82.0737 39.5938C81.2427 40.2454 80.3345 40.5712 79.3392 40.5712C78.2667 40.5712 77.3729 40.1628 76.6531 39.3409C75.9332 38.5191 75.5757 37.3569 75.5757 35.8494C75.5757 34.4732 75.8511 33.0921 76.4067 31.711C76.9574 30.3299 77.6966 29.3136 78.6194 28.662L78.6146 28.6474Z" fill="white"/>
<path d="M113.402 29.8438H109.634H107.914C106.682 29.8438 105.615 30.7142 105.363 31.93L102.895 43.776H106.552L107.953 37.5417L108.982 33.0582H108.987H112.726L113.393 29.8486L113.402 29.8438Z" fill="white"/>
<path d="M118.78 33.0821H121.027L121.737 29.8483H119.505L120.747 24.2705L116.756 25.9287L115.843 29.8483L115.176 33.0578L114.452 36.5591L114.138 38.0666C113.823 39.579 113.664 40.5467 113.664 40.9649C113.664 41.8548 113.959 42.5502 114.543 43.0511C115.128 43.552 116.07 43.7999 117.36 43.7999C118.022 43.7999 118.669 43.7367 119.297 43.6055L119.872 40.8725C119.225 40.9308 118.824 40.96 118.66 40.96C118.191 40.96 117.867 40.8822 117.688 40.7217C117.51 40.5612 117.423 40.3424 117.423 40.0604C117.423 39.9145 117.529 39.3261 117.742 38.2903L118.775 33.0821H118.78Z" fill="white"/>
<path d="M101.987 34.4734C102.06 34.0114 102.093 33.5737 102.093 33.1653C102.093 32.1489 101.678 31.2833 100.842 30.5782C100.011 29.8731 98.7212 29.5181 96.9771 29.5181C95.233 29.5181 93.9576 29.8585 92.943 30.5441C91.9284 31.2298 91.2134 32.1781 90.8076 33.3938L94.3779 33.7002C94.5132 33.2041 94.7692 32.82 95.1509 32.5525C95.5277 32.2851 96.0447 32.1489 96.7017 32.1489C97.3201 32.1489 97.7887 32.2802 98.1028 32.5477C98.4168 32.8151 98.5762 33.1409 98.5762 33.5348C98.5762 33.8412 98.4989 34.2545 98.3443 34.7651C97.7597 34.9694 96.5906 35.1445 94.8513 35.2903C92.7836 35.4508 91.3487 35.9225 90.5467 36.7006C89.7447 37.4787 89.3438 38.5193 89.3438 39.8177C89.3438 40.9799 89.7109 41.9331 90.4404 42.6722C91.1699 43.4114 92.0975 43.781 93.2184 43.781C93.9237 43.781 94.6243 43.6205 95.32 43.2996C95.7548 43.1002 96.1509 42.8376 96.5229 42.5312L96.2911 43.781H99.8178L101.832 35.2369C101.905 34.8867 101.953 34.6241 101.977 34.4636L101.987 34.4734ZM97.8177 37.3376L97.7597 37.6051C97.6679 38.0379 97.5713 38.4172 97.4699 38.743C97.3588 39.0883 97.2428 39.3703 97.1172 39.5892C96.8756 40.0122 96.5085 40.3575 96.0205 40.6298C95.5326 40.8973 95.0108 41.0334 94.46 41.0334C93.9576 41.0334 93.5566 40.8876 93.2474 40.5909C92.943 40.2943 92.7884 39.9344 92.7884 39.5065C92.7884 38.9861 92.9865 38.5679 93.3875 38.2616C93.9479 37.8336 95.1461 37.5078 96.9819 37.2842C97.3491 37.2307 97.639 37.1772 97.8612 37.1188L97.8177 37.3376Z" fill="white"/>
<path d="M14.0498 4.25977C14.156 4.65852 14.2672 5.05729 14.3734 5.45605H15.6054L14.0449 4.25977H14.0498Z" fill="white"/>
<path d="M58.2553 0H23.8714C21.9003 0 20.4364 1.92572 20.8664 3.95355L27.1422 28.0833C27.4562 29.5665 28.7075 30.6266 30.1472 30.6266H54.8589C56.3856 30.6266 57.6803 29.4498 57.9074 27.8548L61.3038 3.72501C61.5791 1.76525 60.1394 0 58.2553 0ZM35.7224 27.174L40.399 16.9667H35.046L47.0468 2.28071L43.1045 13.0521L48.6266 13.1104L35.7273 27.174H35.7224Z" fill="white"/>
<path d="M47.0428 2.28076L35.0469 16.9668H40.395L35.7233 27.174L48.6226 13.1105L43.1005 13.0521L47.0428 2.28076Z" fill="#3F3F3F"/>
<path d="M58.2009 33.5883H30.6774C29.4165 33.5883 28.141 33.6467 26.8849 33.5883C25.252 33.5105 24.9862 32.2024 24.6384 30.9235C23.3098 26.0217 21.9764 21.1198 20.6478 16.2229L17.1693 3.39938C16.9761 2.6894 16.3383 2.20312 15.6088 2.20312H3.74333C1.66108 2.20312 1.66108 5.45641 3.74333 5.45641H14.372C14.2657 5.05766 14.1546 4.65889 14.0483 4.26013L15.6088 5.45641H14.3769C16.7055 14.0346 19.0342 22.6128 21.3628 31.1909C21.8508 32.9902 22.2324 34.7214 23.8702 35.8982C25.3824 36.9827 27.1168 36.8465 28.8561 36.8465H29.774C29.286 37.5759 29.001 38.4561 29.001 39.4044C29.001 41.9428 31.0446 43.9999 33.5665 43.9999C36.0884 43.9999 38.132 41.9428 38.132 39.4044C38.132 38.4561 37.847 37.5759 37.359 36.8465H44.8474C44.3595 37.5759 44.0744 38.4561 44.0744 39.4044C44.0744 41.9428 46.118 43.9999 48.6399 43.9999C51.1618 43.9999 53.2054 41.9428 53.2054 39.4044C53.2054 38.4561 52.9204 37.5759 52.4324 36.8465H58.2202C60.3025 36.8465 60.3025 33.5932 58.2202 33.5932L58.2009 33.5883ZM32.5906 41.1599C31.9577 40.8535 31.5809 40.1776 31.5809 39.4676C31.5809 38.4659 32.2862 37.5711 33.267 37.4301C34.4893 37.255 35.5376 38.2033 35.5376 39.3995C35.5376 40.8098 34.0786 41.8796 32.5954 41.1599H32.5906ZM47.6544 41.1599C47.0215 40.8535 46.6446 40.1776 46.6446 39.4676C46.6446 38.4659 47.35 37.5711 48.3307 37.4301C49.553 37.255 50.6014 38.2033 50.6014 39.3995C50.6014 40.8098 49.1424 41.8796 47.6592 41.1599H47.6544Z" fill="white"/>
<path d="M4.27667 15.9704H12.4125C13.1516 15.9704 13.7555 15.3674 13.7555 14.6185C13.7555 13.8696 13.1565 13.2666 12.4125 13.2666H4.27667C3.5375 13.2666 2.93359 13.8696 2.93359 14.6185C2.93359 15.3674 3.53267 15.9704 4.27667 15.9704Z" fill="white"/>
<path d="M14.7216 19.6123H8.37824C7.63648 19.6123 7.03516 20.2165 7.03516 20.9618C7.03516 21.7071 7.63648 22.3112 8.37824 22.3112H14.7216C15.4634 22.3112 16.0647 21.7071 16.0647 20.9618C16.0647 20.2165 15.4634 19.6123 14.7216 19.6123Z" fill="white"/>
<path d="M3.01468 19.6123H1.34308C0.601317 19.6123 0 20.2165 0 20.9618C0 21.7071 0.601317 22.3112 1.34308 22.3112H3.01468C3.75645 22.3112 4.35777 21.7071 4.35777 20.9618C4.35777 20.2165 3.75645 19.6123 3.01468 19.6123Z" fill="white"/>
<path d="M4.75 27.5096C4.75 28.2536 5.34907 28.8615 6.09308 28.8615H16.1082C16.8474 28.8615 17.4513 28.2585 17.4513 27.5096C17.4513 26.7607 16.8522 26.1577 16.1082 26.1577H6.09308C5.3539 26.1577 4.75 26.7607 4.75 27.5096Z" fill="white"/>
</svg>
