<svg width="20" height="20" viewBox="0 0 20 20" fill="none" xmlns="http://www.w3.org/2000/svg">
<path fill-rule="evenodd" clip-rule="evenodd" d="M1.625 3C1.27983 3 1 3.27982 1 3.625C1 3.97018 1.27983 4.25 1.625 4.25H3.50729C3.80738 4.25 4.0651 4.46327 4.12125 4.75805L5.40083 11.4758C5.49942 11.9934 5.80517 12.4273 6.22231 12.6981C5.95223 13.0494 5.79167 13.4893 5.79167 13.9667C5.79167 15.1173 6.72441 16.05 7.875 16.05C9.02558 16.05 9.95833 15.1173 9.95833 13.9667C9.95833 13.6178 9.87258 13.2889 9.721 13H13.529C13.3774 13.2889 13.2917 13.6178 13.2917 13.9667C13.2917 15.1173 14.2244 16.05 15.375 16.05C16.5256 16.05 17.4583 15.1173 17.4583 13.9667C17.4583 13.4875 17.2966 13.0462 17.0248 12.6943C17.4432 12.4203 17.7483 11.9821 17.8432 11.4604L18.4899 7.9035C18.5517 7.56386 18.3264 7.23849 17.9868 7.17675C17.6472 7.115 17.3218 7.34025 17.2601 7.67986L16.6133 11.2368C16.5593 11.534 16.3005 11.75 15.9984 11.75H7.24271C6.94263 11.75 6.6849 11.5368 6.62875 11.2419L5.34917 4.52417C5.18073 3.63982 4.40753 3 3.50729 3H1.625ZM7.875 14.8C8.33525 14.8 8.70833 14.4269 8.70833 13.9667C8.70833 13.5064 8.33525 13.1333 7.875 13.1333C7.41477 13.1333 7.04167 13.5064 7.04167 13.9667C7.04167 14.4269 7.41477 14.8 7.875 14.8ZM15.375 14.8C15.8353 14.8 16.2083 14.4269 16.2083 13.9667C16.2083 13.5064 15.8353 13.1333 15.375 13.1333C14.9148 13.1333 14.5417 13.5064 14.5417 13.9667C14.5417 14.4269 14.9148 14.8 15.375 14.8Z" fill="white"/>
<path fill-rule="evenodd" clip-rule="evenodd" d="M9.33398 7.79297C9.33398 7.44779 9.61382 7.16797 9.95898 7.16797H13.2923C13.6375 7.16797 13.9173 7.44779 13.9173 7.79297C13.9173 8.13814 13.6375 8.41797 13.2923 8.41797H9.95898C9.61382 8.41797 9.33398 8.13814 9.33398 7.79297Z" fill="white"/>
</svg>
