<svg width="110" height="32" viewBox="0 0 110 32" fill="none" xmlns="http://www.w3.org/2000/svg">
<path d="M52.6432 9.45498L55.3261 9.3142C55.3629 10.1645 55.5101 10.7389 55.7648 11.0346C56.1751 11.5189 56.9364 11.761 58.0458 11.761C58.9684 11.761 59.6364 11.5977 60.0467 11.2683C60.4571 10.9388 60.6637 10.5418 60.6637 10.0773C60.6637 9.67461 60.4967 9.33392 60.1599 9.05517C59.9222 8.84962 59.2741 8.51737 58.21 8.05842C57.1459 7.59947 56.3704 7.21654 55.8808 6.90963C55.3912 6.60272 55.0063 6.2029 54.7261 5.71298C54.446 5.22305 54.3045 4.64865 54.3045 3.9926C54.3045 2.84663 54.7233 1.89212 55.5582 1.13752C56.3931 0.380106 57.6015 0.00280762 59.1864 0.00280762C60.7712 0.00280762 62.0391 0.377291 62.9221 1.12907C63.8051 1.88085 64.289 2.8776 64.3768 4.12494L61.674 4.24601C61.6061 3.59559 61.3684 3.09441 60.9637 2.74808C60.559 2.40176 59.959 2.22718 59.1694 2.22718C58.3798 2.22718 57.8336 2.36233 57.4996 2.63545C57.1657 2.90857 56.9987 3.25208 56.9987 3.6688C56.9987 4.06018 57.1515 4.38117 57.4572 4.63739C57.7628 4.89925 58.4392 5.25402 59.4863 5.70734C61.0627 6.3831 62.0674 6.93215 62.4976 7.3545C63.14 7.97395 63.4598 8.77078 63.4598 9.745C63.4598 10.9473 62.9815 11.975 62.0249 12.8282C61.0684 13.6813 59.7354 14.1065 58.0289 14.1065C56.8515 14.1065 55.8299 13.9094 54.9667 13.5152C54.1035 13.121 53.495 12.5747 53.1385 11.8736C52.7819 11.1725 52.6177 10.3673 52.6432 9.45498Z" fill="#3F3F3F"/>
<path d="M66.96 3.99261H69.5042L69.2891 5.00625C69.8325 4.55855 70.3391 4.24039 70.8145 4.04892C71.2872 3.85746 71.7966 3.76172 72.34 3.76172C73.3814 3.76172 74.2191 4.11931 74.8503 4.83168C75.4842 5.54404 75.7983 6.60835 75.7983 8.02182C75.7983 9.80132 75.2521 11.3049 74.1625 12.5325C73.2286 13.5799 72.122 14.1036 70.8428 14.1036C69.5636 14.1036 68.5335 13.5743 67.8599 12.5128L66.7845 17.6401H64.1016L66.9628 3.99261H66.96ZM68.5759 9.65772C68.5759 10.4264 68.7656 11.0233 69.142 11.4485C69.5184 11.8736 69.9627 12.0848 70.4749 12.0848C70.9164 12.0848 71.3438 11.9243 71.757 11.6062C72.1673 11.288 72.5098 10.7558 72.7815 10.0153C73.0532 9.27479 73.189 8.58777 73.189 7.95424C73.189 7.21654 73.0107 6.65059 72.6569 6.2564C72.3003 5.86221 71.8504 5.66511 71.3013 5.66511C70.7891 5.66511 70.3249 5.84531 69.9032 6.20853C69.4816 6.57175 69.1561 7.10392 68.9269 7.80783C68.6948 8.51175 68.5816 9.12838 68.5816 9.65491L68.5759 9.65772Z" fill="#3F3F3F"/>
<path d="M86.336 9.7619H79.6032C79.5976 9.86608 79.5947 9.94773 79.5947 10.004C79.5947 10.6629 79.7843 11.1923 80.1607 11.5949C80.5371 11.9975 80.9984 12.2003 81.539 12.2003C82.4305 12.2003 83.1267 11.7413 83.6248 10.8234L86.0275 11.2232C85.5606 12.1834 84.9351 12.907 84.154 13.3857C83.3729 13.8671 82.4956 14.1065 81.522 14.1065C80.189 14.1065 79.1023 13.6869 78.2674 12.845C77.4325 12.006 77.0137 10.8938 77.0137 9.50849C77.0137 8.12318 77.3901 6.95468 78.1457 5.89881C79.173 4.47127 80.6418 3.75891 82.5493 3.75891C83.7663 3.75891 84.7313 4.13339 85.4474 4.87954C86.1634 5.62569 86.5228 6.67312 86.5228 8.01901C86.5228 8.6638 86.4605 9.24382 86.336 9.75909V9.7619ZM84.0719 8.13163C84.0776 8.01338 84.0804 7.92327 84.0804 7.86132C84.0804 7.12925 83.9163 6.5802 83.5852 6.21417C83.254 5.84813 82.8125 5.66511 82.2578 5.66511C81.7031 5.66511 81.205 5.87347 80.7664 6.28737C80.3277 6.70409 80.0277 7.3179 79.8721 8.12882H84.0719V8.13163Z" fill="#3F3F3F"/>
<path d="M96.9844 9.7619H90.2516C90.246 9.86608 90.2432 9.94773 90.2432 10.004C90.2432 10.6629 90.4328 11.1923 90.8092 11.5949C91.1856 11.9975 91.6469 12.2003 92.1874 12.2003C93.0789 12.2003 93.7751 11.7413 94.2732 10.8234L96.676 11.2232C96.209 12.1834 95.5835 12.907 94.8024 13.3857C94.0213 13.8671 93.144 14.1065 92.1704 14.1065C90.8375 14.1065 89.7507 13.6869 88.9158 12.845C88.081 12.006 87.6621 10.8938 87.6621 9.50849C87.6621 8.12318 88.0385 6.95468 88.7941 5.89881C89.8215 4.47127 91.2903 3.75891 93.1978 3.75891C94.4147 3.75891 95.3798 4.13339 96.0958 4.87954C96.8118 5.62569 97.1712 6.67312 97.1712 8.01901C97.1712 8.6638 97.109 9.24382 96.9844 9.75909V9.7619ZM94.7204 8.13163C94.726 8.01338 94.7289 7.92327 94.7289 7.86132C94.7289 7.12925 94.5647 6.5802 94.2336 6.21417C93.9025 5.84813 93.461 5.66511 92.9063 5.66511C92.3516 5.66511 91.8535 5.87347 91.4148 6.28737C90.9761 6.70409 90.679 7.3179 90.5205 8.12882H94.7204V8.13163Z" fill="#3F3F3F"/>
<path d="M107.14 13.8727H104.596L104.819 12.8028C104.333 13.2674 103.854 13.6024 103.385 13.8023C102.915 14.0051 102.383 14.1036 101.791 14.1036C100.764 14.1036 99.9291 13.7545 99.2895 13.0562C98.6499 12.3579 98.3301 11.3274 98.3301 9.96177C98.3301 8.37936 98.7801 6.95182 99.6772 5.67351C100.574 4.3952 101.763 3.75605 103.24 3.75605C104.573 3.75605 105.575 4.28257 106.243 5.33845L107.318 0.230835H110.001L107.14 13.8699V13.8727ZM100.942 9.85477C100.942 10.5615 101.121 11.1134 101.48 11.5104C101.839 11.9074 102.278 12.1045 102.804 12.1045C103.291 12.1045 103.744 11.9384 104.166 11.6061C104.587 11.2739 104.924 10.767 105.176 10.0857C105.428 9.40427 105.555 8.74822 105.555 8.12314C105.555 7.41078 105.363 6.83356 104.975 6.3915C104.587 5.95226 104.143 5.72983 103.639 5.72983C102.853 5.72983 102.207 6.16344 101.704 7.03348C101.2 7.9007 100.945 8.84113 100.945 9.85195L100.942 9.85477Z" fill="#3F3F3F"/>
<path d="M57.649 20.7655C58.3254 20.2953 59.0527 20.0588 59.831 20.0588C60.5414 20.0588 61.1102 20.2362 61.5376 20.5938C61.9649 20.9514 62.2536 21.5257 62.4036 22.3198L65.1063 22.0579C64.945 20.6923 64.4044 19.6167 63.4875 18.8255C62.5705 18.0343 61.3706 17.6401 59.8876 17.6401C58.566 17.6401 57.3434 17.9808 56.2226 18.6622C55.1019 19.3436 54.2218 20.3291 53.5907 21.6159C52.9567 22.9026 52.6426 24.3217 52.6426 25.8731C52.6426 27.7821 53.1152 29.2407 54.0605 30.2459C55.0057 31.251 56.316 31.7522 57.9914 31.7522C59.4801 31.7522 60.7819 31.3468 61.8913 30.5387C63.0007 29.7306 63.8328 28.5593 64.3875 27.0276L61.5461 26.5996C61.2461 27.5231 60.7932 28.2214 60.1848 28.6916C59.5763 29.1618 58.9084 29.3983 58.1782 29.3983C57.3915 29.3983 56.7377 29.0999 56.2085 28.5058C55.6821 27.9117 55.4189 27.067 55.4189 25.9745C55.4189 24.9749 55.6227 23.9754 56.0274 22.973C56.4321 21.9706 56.9726 21.2357 57.649 20.7627V20.7655Z" fill="#3F3F3F"/>
<path d="M83.1595 21.6355L80.3973 21.6327H79.1351C78.2294 21.6327 77.4512 22.2634 77.2644 23.1447L75.4531 31.7297H78.1361L79.1634 27.2105L79.919 23.9584H79.9218H82.6642L83.151 21.6327H83.1538L83.1595 21.6355Z" fill="#3F3F3F"/>
<path d="M87.1036 23.981H88.7507L89.2743 21.6356H87.6385L88.5498 17.5923L85.6234 18.7918L84.9556 21.6328L84.9527 21.6356L84.466 23.9613L83.9339 26.4982L83.7047 27.5907C83.4726 28.6888 83.3594 29.3899 83.3594 29.694C83.3594 30.3388 83.5745 30.8428 84.0046 31.206C84.4348 31.5692 85.1225 31.7494 86.0706 31.7494C86.5574 31.7494 87.03 31.7016 87.4913 31.6087L87.913 29.6264C87.4404 29.6687 87.1432 29.6912 87.0243 29.6912C86.6819 29.6912 86.4442 29.6349 86.314 29.5194C86.1838 29.404 86.1187 29.2463 86.1187 29.0408C86.1187 28.9366 86.198 28.5086 86.3536 27.7568L87.1121 23.981H87.1036Z" fill="#3F3F3F"/>
<path d="M74.787 24.989C74.8408 24.654 74.8663 24.3386 74.8663 24.0402C74.8663 23.3024 74.5606 22.6774 73.9493 22.1649C73.338 21.6525 72.3928 21.3962 71.1164 21.3962C69.84 21.3962 68.9004 21.644 68.1561 22.1396C67.4118 22.6351 66.8882 23.325 66.5911 24.2035L69.2089 24.4259C69.3079 24.0655 69.4976 23.7896 69.7749 23.5925C70.0523 23.3982 70.4315 23.2996 70.9098 23.2996C71.3654 23.2996 71.7079 23.3954 71.9371 23.5868C72.1663 23.7783 72.2824 24.0176 72.2824 24.302C72.2824 24.5244 72.2258 24.8229 72.1154 25.1946C71.6852 25.3438 70.8305 25.4705 69.5542 25.5747C68.0401 25.6929 66.9873 26.0336 66.3986 26.5968C65.81 27.1599 65.5156 27.9145 65.5156 28.8577C65.5156 29.7024 65.7845 30.3923 66.3194 30.9273C66.8543 31.4651 67.5363 31.7325 68.357 31.7325C68.875 31.7325 69.39 31.6171 69.8994 31.3834C70.2164 31.2398 70.5107 31.0512 70.7824 30.8259L70.6126 31.7325H73.1993L74.6766 25.5409C74.7276 25.2847 74.7644 25.0988 74.7842 24.9806L74.787 24.989ZM71.7277 27.0642L71.6852 27.2585C71.6201 27.5738 71.5466 27.8469 71.4701 28.0834C71.3881 28.334 71.3032 28.5396 71.2126 28.6973C71.0343 29.0042 70.7655 29.2548 70.4089 29.4519C70.0494 29.6461 69.6674 29.7447 69.2627 29.7447C68.8948 29.7447 68.5976 29.6377 68.374 29.4237C68.1504 29.2097 68.0372 28.9478 68.0372 28.6381C68.0372 28.2608 68.1844 27.9596 68.4759 27.7371C68.8863 27.4274 69.7664 27.1909 71.1136 27.0304C71.3824 26.9938 71.5975 26.9515 71.7588 26.9093L71.7248 27.067L71.7277 27.0642Z" fill="#3F3F3F"/>
<path d="M10.3008 3.08875C10.38 3.37594 10.4593 3.66596 10.5385 3.95316H11.4441L10.3008 3.08875Z" fill="#3F3F3F"/>
<path d="M42.6773 24.347H22.4959C21.5733 24.347 20.6366 24.3892 19.714 24.347C18.5168 24.2907 18.3216 23.3418 18.0669 22.4154C17.0905 18.8621 16.1169 15.3115 15.1405 11.7582L12.5878 2.46367C12.4463 1.95122 11.9793 1.59363 11.4444 1.59363H2.74474C1.21932 1.59363 1.21649 3.95315 2.74474 3.95315H10.5416C10.4624 3.66596 10.3831 3.37594 10.3039 3.08874L11.4473 3.95315H10.5416C12.2482 10.1701 13.9547 16.3871 15.6641 22.6041C16.0235 23.9078 16.3037 25.1635 17.5008 26.0167C18.6102 26.8051 19.8809 26.7037 21.1573 26.7037H21.8309C22.4308 25.814 23.4525 25.2283 24.61 25.2283C25.7675 25.2283 26.7892 25.814 27.3892 26.7037H32.8569C33.4569 25.814 34.4785 25.2283 35.6361 25.2283C36.7936 25.2283 37.8152 25.814 38.4152 26.7037H42.683C44.2084 26.7037 44.2112 24.3442 42.683 24.3442L42.6773 24.347Z" fill="#3F3F3F"/>
<path d="M42.717 0.00281412H17.5037C16.0575 0.00281412 14.9849 1.39657 15.2991 2.86634L19.9008 20.3544C20.13 21.43 21.047 22.1959 22.1055 22.1959H40.2265C41.3472 22.1959 42.2981 21.3427 42.4623 20.1883L44.9528 2.70022C45.1565 1.27831 44.0981 0 42.717 0V0.00281412ZM26.1921 19.6984L29.6222 12.3016H25.6968L34.4956 1.65561L31.6032 9.46344L35.6503 9.50568L26.1893 19.6984H26.1921Z" fill="#F05A29"/>
<path d="M34.496 1.65564L25.6973 12.2988H29.6226L26.1925 19.6984L35.6535 9.50571L31.6065 9.46347L34.496 1.65564Z" fill="white"/>
<path d="M34.2297 28.3875C34.3401 27.8215 34.7986 27.3626 35.3674 27.2556C36.1797 27.1007 36.9014 27.6272 37.0655 28.3593C36.9551 27.5906 36.2419 27.0162 35.4156 27.1345C34.6967 27.2387 34.1816 27.8835 34.1816 28.6071V28.6127C34.1816 28.7704 34.2099 28.9252 34.2609 29.0717C34.1986 28.8605 34.1845 28.6296 34.2297 28.3903V28.3875Z" fill="#3F3F3F"/>
<path d="M38.9789 28.562C38.9789 30.4007 37.4818 31.8901 35.6338 31.8901C33.7857 31.8901 32.2886 30.4007 32.2886 28.562C32.2886 28.4607 32.2943 28.3593 32.3028 28.2608C32.2377 28.6803 32.2688 29.0604 32.348 29.3926H32.3876C32.7188 30.8821 34.0574 32 35.6536 32C37.6262 32 39.2053 30.2937 38.9789 28.2889C38.9676 28.1763 38.945 28.0665 38.9223 27.9567C38.9591 28.1538 38.9789 28.3537 38.9789 28.5592V28.562Z" fill="#3F3F3F"/>
<path d="M27.383 30.5245C27.4112 30.4823 27.4393 30.4401 27.4647 30.395C27.4083 30.4401 27.3802 30.4851 27.383 30.5245Z" fill="#3F3F3F"/>
<path d="M21.2596 28.5621C21.2596 30.4007 22.7567 31.8902 24.6047 31.8902C26.4528 31.8902 27.9499 30.4007 27.9499 28.5621C27.9499 27.875 27.7405 27.2359 27.3811 26.7065H21.8228C21.4633 27.2359 21.2539 27.875 21.2539 28.5621H21.2596ZM23.1557 28.6071C23.1557 27.8835 23.6708 27.2387 24.3897 27.1345C25.2868 27.005 26.0537 27.6948 26.0537 28.5621C26.0537 29.5841 24.984 30.3613 23.8944 29.8376C23.4303 29.6151 23.1529 29.1252 23.1529 28.6127V28.6071H23.1557Z" fill="#3F3F3F"/>
<path d="M24.6073 25.234C23.4498 25.234 22.4281 25.8197 21.8281 26.7094H27.3864C26.7864 25.8197 25.7648 25.234 24.6073 25.234Z" fill="#3F3F3F"/>
<path d="M38.9213 27.9595C38.8364 27.5034 38.6609 27.0782 38.4119 26.7065H38.3496C38.6213 27.0754 38.8194 27.5006 38.9213 27.9595Z" fill="#3F3F3F"/>
<path d="M32.3876 27.9511C32.4895 27.4949 32.6905 27.0726 32.9593 26.7065H32.8546C32.549 27.157 32.3537 27.6892 32.3027 28.2608C32.3169 28.1594 32.3367 28.0552 32.365 27.9511H32.3876Z" fill="#3F3F3F"/>
<path d="M37.0833 28.5621C37.0833 29.5842 36.0135 30.3613 34.924 29.8376C34.6013 29.6827 34.3721 29.3984 34.2617 29.0689C34.4598 29.7559 35.1589 30.2346 35.9371 30.0882C36.506 29.9784 36.9673 29.5222 37.0748 28.9563C37.1144 28.7479 37.1088 28.548 37.0663 28.3594C37.0748 28.427 37.0833 28.4945 37.0833 28.5621Z" fill="#3F3F3F"/>
<path d="M35.6346 25.234C34.4771 25.234 33.4554 25.8197 32.8555 26.7094H32.9602C33.6366 25.7915 34.7714 25.2312 36.0252 25.3663C36.9732 25.4677 37.8081 25.9773 38.3515 26.7094H38.4138C37.8138 25.8197 36.7921 25.234 35.6346 25.234Z" fill="#3F3F3F"/>
<path d="M32.9757 26.7065H32.9559C32.687 27.0726 32.4861 27.4921 32.3842 27.9511H32.3616C32.3333 28.0581 32.3163 28.1594 32.2993 28.2608C32.2908 28.3593 32.2852 28.4607 32.2852 28.5621C32.2852 30.4007 33.7823 31.8902 35.6303 31.8902C37.4784 31.8902 38.9755 30.4007 38.9755 28.5621C38.9755 28.3565 38.9529 28.1538 38.9189 27.9595C38.817 27.5006 38.6217 27.0754 38.3472 26.7065H32.9729H32.9757ZM37.0765 28.9534C36.969 29.5194 36.5077 29.9783 35.9388 30.0853C35.1577 30.2346 34.4615 29.7531 34.2634 29.0661C34.2124 28.9197 34.1841 28.7648 34.1841 28.6071V28.6015C34.1841 27.8779 34.6992 27.2331 35.4181 27.1289C36.2416 27.0106 36.9576 27.585 37.068 28.3537C37.1105 28.5423 37.1161 28.7423 37.0765 28.9506V28.9534Z" fill="#3F3F3F"/>
<path d="M38.3503 26.7065C37.8069 25.9745 36.972 25.4648 36.024 25.3635C34.7674 25.2283 33.6354 25.7914 32.959 26.7065H38.3503Z" fill="#3F3F3F"/>
<path d="M3.1333 11.578H9.09914C9.64252 11.578 10.084 11.1387 10.084 10.5981C10.084 10.0575 9.64252 9.61829 9.09914 9.61829H3.1333C2.58993 9.61829 2.14844 10.0575 2.14844 10.5981C2.14844 11.1387 2.58993 11.578 3.1333 11.578Z" fill="#3F3F3F"/>
<path d="M10.7977 14.2191H6.14503C5.6011 14.2191 5.16016 14.6572 5.16016 15.1976C5.16016 15.7379 5.6011 16.176 6.14503 16.176H10.7977C11.3416 16.176 11.7826 15.7379 11.7826 15.1976C11.7826 14.6572 11.3416 14.2191 10.7977 14.2191Z" fill="#3F3F3F"/>
<path d="M2.21031 14.2191H0.984875C0.440945 14.2191 0 14.6572 0 15.1976C0 15.7379 0.440945 16.176 0.984875 16.176H2.21031C2.75424 16.176 3.19517 15.7379 3.19517 15.1976C3.19517 14.6572 2.75424 14.2191 2.21031 14.2191Z" fill="#3F3F3F"/>
<path d="M3.48047 19.9433C3.48047 20.484 3.92197 20.9232 4.46534 20.9232H11.8094C12.3528 20.9232 12.7943 20.484 12.7943 19.9433C12.7943 19.4027 12.3528 18.9635 11.8094 18.9635H4.46534C3.92197 18.9635 3.48047 19.4027 3.48047 19.9433Z" fill="#3F3F3F"/>
</svg>
