<svg width="32" height="32" viewBox="0 0 32 32" fill="none" xmlns="http://www.w3.org/2000/svg">
<g filter="url(#filter0_ii_877_9445)">
<rect x="0.5" y="0.5" width="31" height="31" rx="8.64286" stroke="#B5B5B5"/>
<g clip-path="url(#clip0_877_9445)">
<path d="M19.9997 8H11.9999C9.80015 8 8 9.80015 8 11.9999V20.0001C8 22.1993 9.80015 24 11.9999 24H19.9997C22.1995 24 23.9996 22.1993 23.9996 20.0001V11.9999C23.9996 9.80015 22.1995 8 19.9997 8ZM22.6662 20.0001C22.6662 21.4701 21.4705 22.6666 19.9997 22.6666H11.9999C10.5297 22.6666 9.33337 21.4701 9.33337 20.0001V11.9999C9.33337 10.5295 10.5297 9.33337 11.9999 9.33337H19.9997C21.4705 9.33337 22.6662 10.5295 22.6662 11.9999V20.0001Z" fill="#1A1A1A"/>
<path d="M20.334 12.6665C20.8862 12.6665 21.3339 12.2188 21.3339 11.6665C21.3339 11.1142 20.8862 10.6665 20.334 10.6665C19.7817 10.6665 19.334 11.1142 19.334 11.6665C19.334 12.2188 19.7817 12.6665 20.334 12.6665Z" fill="#1A1A1A"/>
<path d="M15.9999 11.9999C13.7903 11.9999 12 13.7905 12 15.9998C12 18.2084 13.7903 20.0001 15.9999 20.0001C18.2088 20.0001 19.9998 18.2084 19.9998 15.9998C19.9998 13.7905 18.2088 11.9999 15.9999 11.9999ZM15.9999 18.6667C14.5273 18.6667 13.3334 17.4728 13.3334 15.9998C13.3334 14.5268 14.5273 13.3333 15.9999 13.3333C17.4725 13.3333 18.6664 14.5268 18.6664 15.9998C18.6664 17.4728 17.4725 18.6667 15.9999 18.6667Z" fill="#1A1A1A"/>
</g>
</g>
<defs>
<filter id="filter0_ii_877_9445" x="0" y="-1.14286" width="32" height="34.2857" filterUnits="userSpaceOnUse" color-interpolation-filters="sRGB">
<feFlood flood-opacity="0" result="BackgroundImageFix"/>
<feBlend mode="normal" in="SourceGraphic" in2="BackgroundImageFix" result="shape"/>
<feColorMatrix in="SourceAlpha" type="matrix" values="0 0 0 0 0 0 0 0 0 0 0 0 0 0 0 0 0 0 127 0" result="hardAlpha"/>
<feOffset dy="1.14286"/>
<feGaussianBlur stdDeviation="4.28571"/>
<feComposite in2="hardAlpha" operator="arithmetic" k2="-1" k3="1"/>
<feColorMatrix type="matrix" values="0 0 0 0 0.778846 0 0 0 0 0.778846 0 0 0 0 0.778846 0 0 0 0.25 0"/>
<feBlend mode="normal" in2="shape" result="effect1_innerShadow_877_9445"/>
<feColorMatrix in="SourceAlpha" type="matrix" values="0 0 0 0 0 0 0 0 0 0 0 0 0 0 0 0 0 0 127 0" result="hardAlpha"/>
<feOffset dy="-1.14286"/>
<feGaussianBlur stdDeviation="4.28571"/>
<feComposite in2="hardAlpha" operator="arithmetic" k2="-1" k3="1"/>
<feColorMatrix type="matrix" values="0 0 0 0 0.780392 0 0 0 0 0.780392 0 0 0 0 0.780392 0 0 0 0.25 0"/>
<feBlend mode="normal" in2="effect1_innerShadow_877_9445" result="effect2_innerShadow_877_9445"/>
</filter>
<clipPath id="clip0_877_9445">
<rect width="16" height="16" fill="white" transform="translate(8 8)"/>
</clipPath>
</defs>
</svg>
