<svg width="32" height="32" viewBox="0 0 32 32" fill="none" xmlns="http://www.w3.org/2000/svg">
<g filter="url(#filter0_ii_877_9443)">
<rect x="0.5" y="0.5" width="31" height="31" rx="8.64286" stroke="#B5B5B5"/>
<path d="M22.0689 22.1063V17.4183C22.0689 15.1143 21.5729 13.3543 18.8849 13.3543C17.5889 13.3543 16.7249 14.0583 16.3729 14.7303H16.3409V13.5623H13.7969V22.1063H16.4529V17.8663C16.4529 16.7463 16.6609 15.6743 18.0369 15.6743C19.3969 15.6743 19.4129 16.9383 19.4129 17.9303V22.0903H22.0689V22.1063Z" fill="#1A1A1A"/>
<path d="M9.80859 13.5623H12.4646V22.1063H9.80859V13.5623Z" fill="#1A1A1A"/>
<path d="M11.1356 9.59967C10.2876 9.59967 9.59961 10.2877 9.59961 11.1357C9.59961 11.9837 10.2876 12.6877 11.1356 12.6877C11.9836 12.6877 12.6716 11.9837 12.6716 11.1357C12.6716 10.2877 11.9836 9.59967 11.1356 9.59967Z" fill="#1A1A1A"/>
</g>
<defs>
<filter id="filter0_ii_877_9443" x="0" y="-1.14286" width="32" height="34.2857" filterUnits="userSpaceOnUse" color-interpolation-filters="sRGB">
<feFlood flood-opacity="0" result="BackgroundImageFix"/>
<feBlend mode="normal" in="SourceGraphic" in2="BackgroundImageFix" result="shape"/>
<feColorMatrix in="SourceAlpha" type="matrix" values="0 0 0 0 0 0 0 0 0 0 0 0 0 0 0 0 0 0 127 0" result="hardAlpha"/>
<feOffset dy="1.14286"/>
<feGaussianBlur stdDeviation="4.28571"/>
<feComposite in2="hardAlpha" operator="arithmetic" k2="-1" k3="1"/>
<feColorMatrix type="matrix" values="0 0 0 0 0.778846 0 0 0 0 0.778846 0 0 0 0 0.778846 0 0 0 0.25 0"/>
<feBlend mode="normal" in2="shape" result="effect1_innerShadow_877_9443"/>
<feColorMatrix in="SourceAlpha" type="matrix" values="0 0 0 0 0 0 0 0 0 0 0 0 0 0 0 0 0 0 127 0" result="hardAlpha"/>
<feOffset dy="-1.14286"/>
<feGaussianBlur stdDeviation="4.28571"/>
<feComposite in2="hardAlpha" operator="arithmetic" k2="-1" k3="1"/>
<feColorMatrix type="matrix" values="0 0 0 0 0.780392 0 0 0 0 0.780392 0 0 0 0 0.780392 0 0 0 0.25 0"/>
<feBlend mode="normal" in2="effect1_innerShadow_877_9443" result="effect2_innerShadow_877_9443"/>
</filter>
</defs>
</svg>
