<svg width="24" height="16" viewBox="0 0 24 16" fill="none" xmlns="http://www.w3.org/2000/svg">
<path d="M1.46118 1.98425H6.10388L5.49385 1.55082C6.44614 4.81569 7.40076 8.0784 8.35305 11.3433C8.54398 11.9967 8.69299 12.6283 9.33328 13.0552C9.92468 13.4494 10.6046 13.4015 11.2844 13.4015H22.7701C23.585 13.4015 23.585 12.2188 22.7701 12.2188H11.9992C11.5056 12.2188 11.0074 12.2406 10.5161 12.2188C9.87578 12.1905 9.77333 11.7157 9.63596 11.2496C9.11441 9.46797 8.5952 7.68418 8.07365 5.90255C7.61962 4.34744 7.1656 2.79231 6.71157 1.2372C6.63939 0.986724 6.37862 0.803772 6.10155 0.803772H1.45884C0.643927 0.803772 0.643927 1.98643 1.45884 1.98643L1.46118 1.98425Z" fill="#3F3F3F"/>
<path d="M21.4639 11.1363H11.7943C11.2285 11.1363 10.7396 10.7529 10.6185 10.2128L8.16212 1.43752C7.99448 0.699169 8.56725 0 9.33793 0H22.7934C23.5291 0 24.0949 0.640362 23.9855 1.35476L22.656 10.13C22.5675 10.7094 22.06 11.1385 21.4639 11.1385V11.1363Z" fill="#F05A29"/>
<path d="M18.4072 0.829956L13.7109 6.17049H15.8064L13.9764 9.88184L19.0242 4.76783L16.8635 4.74823L18.4072 0.829956Z" fill="white"/>
<path d="M13.1296 12.6588C12.1424 12.6588 11.3438 13.4058 11.3438 14.3293C11.3438 15.2528 12.1424 15.9999 13.1296 15.9999C14.1168 15.9999 14.9154 15.2528 14.9154 14.3293C14.9154 13.4058 14.1168 12.6588 13.1296 12.6588ZM13.9049 14.3293C13.9049 14.7301 13.558 15.0524 13.1319 15.0524C12.7058 15.0524 12.3589 14.7279 12.3589 14.3293C12.3589 13.9286 12.7058 13.6062 13.1319 13.6062C13.558 13.6062 13.9049 13.9307 13.9049 14.3293Z" fill="#3F3F3F"/>
<path d="M19.0124 12.6588C18.0252 12.6588 17.2266 13.4058 17.2266 14.3293C17.2266 15.2528 18.0252 15.9999 19.0124 15.9999C19.9996 15.9999 20.7982 15.2528 20.7982 14.3293C20.7982 13.4058 19.9996 12.6588 19.0124 12.6588ZM19.7877 14.3293C19.7877 14.7301 19.4408 15.0524 19.0147 15.0524C18.5886 15.0524 18.2417 14.7279 18.2417 14.3293C18.2417 13.9286 18.5886 13.6062 19.0147 13.6062C19.4408 13.6062 19.7877 13.9307 19.7877 14.3293Z" fill="#3F3F3F"/>
<path d="M1.67231 5.80873H4.85515C5.14619 5.80873 5.37902 5.58875 5.37902 5.31867C5.37902 5.04859 5.14386 4.82861 4.85515 4.82861H1.67231C1.38127 4.82861 1.14844 5.04859 1.14844 5.31867C1.14844 5.58875 1.3836 5.80873 1.67231 5.80873Z" fill="#3F3F3F"/>
<path d="M2.75195 7.62336C2.75195 7.89561 2.98712 8.11342 3.27583 8.11342H5.76017C6.05121 8.11342 6.28404 7.89343 6.28404 7.62336C6.28404 7.3511 6.04888 7.1333 5.76017 7.1333H3.27583C2.98479 7.1333 2.75195 7.35328 2.75195 7.62336Z" fill="#3F3F3F"/>
<path d="M1.17814 7.1333H0.523876C0.232834 7.1333 0 7.35328 0 7.62336C0 7.89561 0.235162 8.11342 0.523876 8.11342H1.17814C1.46918 8.11342 1.70201 7.89343 1.70201 7.62336C1.70201 7.3511 1.46685 7.1333 1.17814 7.1333Z" fill="#3F3F3F"/>
<path d="M6.29989 9.51355H2.3813C2.09026 9.51355 1.85742 9.73353 1.85742 10.0036C1.85742 10.2759 2.09258 10.4937 2.3813 10.4937H6.29989C6.59093 10.4937 6.82377 10.2737 6.82377 10.0036C6.82377 9.73135 6.58861 9.51355 6.29989 9.51355Z" fill="#3F3F3F"/>
</svg>
