<svg width="32" height="32" viewBox="0 0 32 32" fill="none" xmlns="http://www.w3.org/2000/svg">
<g clip-path="url(#clip0_877_9398)">
<path d="M6.51876 21.2714C9.675 25.0443 13.4744 28.0149 17.8109 30.1169C19.462 30.8993 21.67 31.8276 24.13 31.9867C24.2825 31.9934 24.4284 32 24.5809 32C26.232 32 27.5581 31.4298 28.6389 30.2561C28.6456 30.2495 28.6588 30.2362 28.6655 30.223C29.05 29.7588 29.4877 29.3411 29.9452 28.8968C30.2568 28.5984 30.5751 28.2868 30.8801 27.9685C32.2925 26.4965 32.2925 24.6266 30.8669 23.201L26.8818 19.2159C26.2055 18.5131 25.3965 18.1417 24.5478 18.1417C23.699 18.1417 22.8835 18.5131 22.1872 19.2093L19.8134 21.5831C19.5946 21.4571 19.3692 21.3444 19.157 21.2383C18.8917 21.1057 18.6464 20.9797 18.4276 20.8404C16.266 19.4679 14.3033 17.6776 12.4268 15.3767C11.4786 14.1765 10.842 13.1687 10.3977 12.1409C11.021 11.5773 11.6045 10.9872 12.1682 10.4103C12.3671 10.2047 12.5726 9.99917 12.7782 9.79362C13.4943 9.0775 13.8789 8.24865 13.8789 7.40655C13.8789 6.56444 13.5009 5.7356 12.7782 5.01948L10.8022 3.04351C10.5701 2.81144 10.3513 2.58599 10.1259 2.35392C9.68826 1.90303 9.23074 1.43887 8.77985 1.02114C8.09688 0.35143 7.29456 0 6.44582 0C5.60372 0 4.79477 0.35143 4.08528 1.02777L1.60537 3.50767C0.703593 4.40945 0.193025 5.50352 0.086933 6.77C-0.0390512 8.35474 0.252702 10.039 1.00861 12.0746C2.16899 15.2242 3.91951 18.1484 6.51876 21.2714ZM1.70484 6.90924C1.78441 6.02735 2.12257 5.29134 2.75913 4.65479L5.22576 2.18815C5.61035 1.81683 6.03472 1.62453 6.44582 1.62453C6.8503 1.62453 7.2614 1.81683 7.63936 2.20141C8.08362 2.61252 8.50136 3.04351 8.95225 3.50104C9.17769 3.73311 9.40977 3.96519 9.64184 4.2039L11.6178 6.17986C12.0289 6.59097 12.2411 7.0087 12.2411 7.41981C12.2411 7.83092 12.0289 8.24865 11.6178 8.65976C11.4123 8.86531 11.2067 9.0775 11.0011 9.28305C10.3845 9.90634 9.80761 10.4965 9.17106 11.0601C9.1578 11.0734 9.15117 11.08 9.13791 11.0932C8.58755 11.6436 8.67375 12.1674 8.80637 12.5653C8.813 12.5852 8.81963 12.5984 8.82626 12.6183C9.33683 13.845 10.0463 15.012 11.1537 16.4045C13.1429 18.8579 15.2382 20.7609 17.5457 22.2263C17.8308 22.4119 18.1358 22.5578 18.421 22.7037C18.6862 22.8363 18.9315 22.9623 19.1503 23.1015C19.1769 23.1148 19.1968 23.1281 19.2233 23.1413C19.4421 23.254 19.6543 23.3071 19.8665 23.3071C20.3969 23.3071 20.7417 22.9689 20.8544 22.8562L23.3343 20.3763C23.7189 19.9917 24.1367 19.7862 24.5478 19.7862C25.0517 19.7862 25.4628 20.0978 25.7214 20.3763L29.7198 24.368C30.5154 25.1637 30.5088 26.0257 29.6999 26.8678C29.4214 27.1662 29.1296 27.4513 28.818 27.7497C28.3538 28.2006 27.8698 28.6647 27.4321 29.1886C26.6696 30.0108 25.7612 30.3954 24.5876 30.3954C24.4748 30.3954 24.3555 30.3887 24.2428 30.3821C22.0679 30.2429 20.0455 29.3941 18.527 28.6714C14.4027 26.6755 10.7823 23.8442 7.7786 20.2503C5.30533 17.2731 3.64102 14.5014 2.54031 11.5309C1.85734 9.70742 1.59874 8.24202 1.70484 6.90924Z" fill="#F05A29"/>
</g>
<defs>
<clipPath id="clip0_877_9398">
<rect width="32" height="32" fill="white"/>
</clipPath>
</defs>
</svg>
