<svg width="32" height="32" viewBox="0 0 32 32" fill="none" xmlns="http://www.w3.org/2000/svg">
<g filter="url(#filter0_ii_2369_1370)">
<rect x="0.5" y="0.5" width="31" height="31" rx="8.64286" stroke="#B5B5B5"/>
<path d="M16.0004 8C12.3165 8 9.33398 10.7855 9.33398 14.2219C9.33398 15.8773 10.03 17.3773 11.1596 18.492L11.7526 16.4147C11.3465 15.7667 11.1121 15.0195 11.1121 14.2219C11.1121 11.7719 13.3048 9.77781 16.0007 9.77781C18.695 9.77781 20.8894 11.7719 20.8894 14.2219C20.8894 16.8413 19.4849 18.6663 18.2228 18.6663C16.9903 18.6663 15.6277 16.9157 15.5685 14.3883L16.2509 11.9999L14.5403 11.5113L11.1118 23.5107L12.8216 24L14.5925 17.8026C15.3964 19.3988 16.7209 20.4441 18.2225 20.4441C20.6774 20.4441 22.6669 17.6594 22.6669 14.2219C22.6669 10.7855 19.6827 8 16.0004 8Z" fill="white"/>
</g>
<defs>
<filter id="filter0_ii_2369_1370" x="0" y="-1.14286" width="32" height="34.2857" filterUnits="userSpaceOnUse" color-interpolation-filters="sRGB">
<feFlood flood-opacity="0" result="BackgroundImageFix"/>
<feBlend mode="normal" in="SourceGraphic" in2="BackgroundImageFix" result="shape"/>
<feColorMatrix in="SourceAlpha" type="matrix" values="0 0 0 0 0 0 0 0 0 0 0 0 0 0 0 0 0 0 127 0" result="hardAlpha"/>
<feOffset dy="1.14286"/>
<feGaussianBlur stdDeviation="4.28571"/>
<feComposite in2="hardAlpha" operator="arithmetic" k2="-1" k3="1"/>
<feColorMatrix type="matrix" values="0 0 0 0 0.778846 0 0 0 0 0.778846 0 0 0 0 0.778846 0 0 0 0.25 0"/>
<feBlend mode="normal" in2="shape" result="effect1_innerShadow_2369_1370"/>
<feColorMatrix in="SourceAlpha" type="matrix" values="0 0 0 0 0 0 0 0 0 0 0 0 0 0 0 0 0 0 127 0" result="hardAlpha"/>
<feOffset dy="-1.14286"/>
<feGaussianBlur stdDeviation="4.28571"/>
<feComposite in2="hardAlpha" operator="arithmetic" k2="-1" k3="1"/>
<feColorMatrix type="matrix" values="0 0 0 0 0.780392 0 0 0 0 0.780392 0 0 0 0 0.780392 0 0 0 0.25 0"/>
<feBlend mode="normal" in2="effect1_innerShadow_2369_1370" result="effect2_innerShadow_2369_1370"/>
</filter>
</defs>
</svg>
