<svg width="49" height="49" viewBox="0 0 49 49" fill="none" xmlns="http://www.w3.org/2000/svg">
<g clip-path="url(#clip0_1474_11057)">
<path d="M40.4232 9.49289C40.39 9.25055 40.1777 9.11648 40.0027 9.10186C39.8277 9.08723 36.4109 9.0353 36.4109 9.0353C36.4109 9.0353 33.5533 6.26001 33.271 5.97755C32.9887 5.69508 32.4373 5.78076 32.2233 5.84376C32.2201 5.8447 31.687 6.00979 30.7873 6.28833C30.6372 5.80064 30.4157 5.20167 30.1002 4.59979C29.0826 2.65879 27.593 1.63139 25.7926 1.62876C25.7905 1.62876 25.7886 1.62876 25.7865 1.62876C25.6617 1.62876 25.5373 1.64048 25.4128 1.65183C25.3599 1.58808 25.3064 1.52489 25.25 1.46461C24.4662 0.625639 23.4596 0.216889 22.2548 0.252233C19.9291 0.318889 17.6141 1.99823 15.7364 4.98061C14.4146 7.07967 13.4104 9.71658 13.1249 11.7574C10.4551 12.5842 8.58709 13.1627 8.54669 13.1754C7.19903 13.5983 7.15666 13.6407 6.97994 14.9103C6.84616 15.8715 3.32031 43.1395 3.32031 43.1395L32.8735 48.25L45.682 45.0663C45.682 45.0663 40.4563 9.73523 40.4232 9.49289ZM14.7805 11.2446C15.5796 7.50811 18.7105 1.90251 22.2995 1.79929C22.8455 1.78786 23.3054 1.90767 23.6981 2.16614C23.07 2.4923 22.4624 2.96105 21.8925 3.5723C20.4153 5.15686 19.2839 7.61723 18.8327 9.98976C17.4245 10.4258 16.0474 10.8523 14.7805 11.2446ZM25.4674 7.93542C23.9192 8.41476 22.229 8.93817 20.5335 9.46317C21.0108 7.63711 21.9144 5.81901 23.0248 4.62792C23.4378 4.18486 24.0157 3.69042 24.6999 3.40814C25.3436 4.74942 25.483 6.65086 25.4674 7.93542ZM27.0134 7.45673C26.9962 6.27914 26.8556 4.64123 26.3071 3.22533C28.0715 3.55964 28.9403 5.55614 29.307 6.74658C28.627 6.95704 27.8524 7.19686 27.0134 7.45673Z" fill="#95BF47"/>
<path d="M40.0035 9.10189C39.8284 9.08726 36.4116 9.03533 36.4116 9.03533C36.4116 9.03533 33.554 6.26004 33.2717 5.97758C33.1665 5.8722 33.0237 5.81829 32.875 5.79504L32.8757 48.2497L45.6827 45.0664C45.6827 45.0664 40.4571 9.73526 40.4239 9.49292C40.3908 9.25058 40.1785 9.11651 40.0035 9.10189Z" fill="#5E8E3E"/>
<path d="M25.7738 15.6876L24.286 21.2527C24.286 21.2527 22.6267 20.497 20.6593 20.6213C17.7747 20.8034 17.7441 22.623 17.7728 23.079C17.93 25.568 24.4777 26.1118 24.8457 31.9414C25.1353 36.5278 22.413 39.6651 18.4904 39.9128C13.7833 40.21 11.1914 37.4324 11.1914 37.4324L12.1888 33.1888C12.1888 33.1888 14.7972 35.1568 16.8852 35.025C18.2491 34.9389 18.7364 33.8296 18.6869 33.0451C18.4819 29.7984 13.1501 29.9896 12.8133 24.655C12.5298 20.1651 15.478 15.6166 21.9835 15.2058C24.4901 15.0476 25.7738 15.6876 25.7738 15.6876Z" fill="white"/>
</g>
<defs>
<clipPath id="clip0_1474_11057">
<rect width="48" height="48" fill="white" transform="translate(0.5 0.25)"/>
</clipPath>
</defs>
</svg>
